<svg xmlns="http://www.w3.org/2000/svg" xmlns:xlink="http://www.w3.org/1999/xlink" width="600" height="400" viewBox="0 0 2400 1600">
<defs>
  <clipPath id="clip510">
    <rect x="0" y="0" width="2400" height="1600"></rect>
  </clipPath>
</defs>
<path clip-path="url(#clip510)" d="M0 1600 L2400 1600 L2400 0 L0 0  Z" fill="#ffffff" fill-rule="evenodd" fill-opacity="1"></path>
<defs>
  <clipPath id="clip511">
    <rect x="480" y="0" width="1681" height="1600"></rect>
  </clipPath>
</defs>
<path clip-path="url(#clip510)" d="M402.619 1360.19 L2289.76 1360.19 L2289.76 246.944 L402.619 246.944  Z" fill="#ffffff" fill-rule="evenodd" fill-opacity="1"></path>
<defs>
  <clipPath id="clip512">
    <rect x="402" y="246" width="1888" height="1114"></rect>
  </clipPath>
</defs>
<polyline clip-path="url(#clip512)" style="stroke:#000000; stroke-linecap:round; stroke-linejoin:round; stroke-width:2; stroke-opacity:0.1; fill:none" points="456.029,1360.19 456.029,246.944 "></polyline>
<polyline clip-path="url(#clip512)" style="stroke:#000000; stroke-linecap:round; stroke-linejoin:round; stroke-width:2; stroke-opacity:0.1; fill:none" points="773.944,1360.19 773.944,246.944 "></polyline>
<polyline clip-path="url(#clip512)" style="stroke:#000000; stroke-linecap:round; stroke-linejoin:round; stroke-width:2; stroke-opacity:0.1; fill:none" points="1091.86,1360.19 1091.86,246.944 "></polyline>
<polyline clip-path="url(#clip512)" style="stroke:#000000; stroke-linecap:round; stroke-linejoin:round; stroke-width:2; stroke-opacity:0.1; fill:none" points="1409.77,1360.19 1409.77,246.944 "></polyline>
<polyline clip-path="url(#clip512)" style="stroke:#000000; stroke-linecap:round; stroke-linejoin:round; stroke-width:2; stroke-opacity:0.1; fill:none" points="1727.69,1360.19 1727.69,246.944 "></polyline>
<polyline clip-path="url(#clip512)" style="stroke:#000000; stroke-linecap:round; stroke-linejoin:round; stroke-width:2; stroke-opacity:0.1; fill:none" points="2045.6,1360.19 2045.6,246.944 "></polyline>
<polyline clip-path="url(#clip510)" style="stroke:#000000; stroke-linecap:round; stroke-linejoin:round; stroke-width:4; stroke-opacity:1; fill:none" points="402.619,1360.19 2289.76,1360.19 "></polyline>
<polyline clip-path="url(#clip510)" style="stroke:#000000; stroke-linecap:round; stroke-linejoin:round; stroke-width:4; stroke-opacity:1; fill:none" points="456.029,1360.19 456.029,1341.29 "></polyline>
<polyline clip-path="url(#clip510)" style="stroke:#000000; stroke-linecap:round; stroke-linejoin:round; stroke-width:4; stroke-opacity:1; fill:none" points="773.944,1360.19 773.944,1341.29 "></polyline>
<polyline clip-path="url(#clip510)" style="stroke:#000000; stroke-linecap:round; stroke-linejoin:round; stroke-width:4; stroke-opacity:1; fill:none" points="1091.86,1360.19 1091.86,1341.29 "></polyline>
<polyline clip-path="url(#clip510)" style="stroke:#000000; stroke-linecap:round; stroke-linejoin:round; stroke-width:4; stroke-opacity:1; fill:none" points="1409.77,1360.19 1409.77,1341.29 "></polyline>
<polyline clip-path="url(#clip510)" style="stroke:#000000; stroke-linecap:round; stroke-linejoin:round; stroke-width:4; stroke-opacity:1; fill:none" points="1727.69,1360.19 1727.69,1341.29 "></polyline>
<polyline clip-path="url(#clip510)" style="stroke:#000000; stroke-linecap:round; stroke-linejoin:round; stroke-width:4; stroke-opacity:1; fill:none" points="2045.6,1360.19 2045.6,1341.29 "></polyline>
<path clip-path="url(#clip510)" d="M433.413 1391.11 Q429.802 1391.11 427.973 1394.67 Q426.168 1398.21 426.168 1405.34 Q426.168 1412.45 427.973 1416.01 Q429.802 1419.56 433.413 1419.56 Q437.047 1419.56 438.853 1416.01 Q440.682 1412.45 440.682 1405.34 Q440.682 1398.21 438.853 1394.67 Q437.047 1391.11 433.413 1391.11 M433.413 1387.4 Q439.223 1387.4 442.279 1392.01 Q445.358 1396.59 445.358 1405.34 Q445.358 1414.07 442.279 1418.68 Q439.223 1423.26 433.413 1423.26 Q427.603 1423.26 424.524 1418.68 Q421.469 1414.07 421.469 1405.34 Q421.469 1396.59 424.524 1392.01 Q427.603 1387.4 433.413 1387.4 Z" fill="#000000" fill-rule="nonzero" fill-opacity="1"></path><path clip-path="url(#clip510)" d="M453.575 1416.71 L458.459 1416.71 L458.459 1422.59 L453.575 1422.59 L453.575 1416.71 Z" fill="#000000" fill-rule="nonzero" fill-opacity="1"></path><path clip-path="url(#clip510)" d="M478.644 1391.11 Q475.033 1391.11 473.205 1394.67 Q471.399 1398.21 471.399 1405.34 Q471.399 1412.45 473.205 1416.01 Q475.033 1419.56 478.644 1419.56 Q482.279 1419.56 484.084 1416.01 Q485.913 1412.45 485.913 1405.34 Q485.913 1398.21 484.084 1394.67 Q482.279 1391.11 478.644 1391.11 M478.644 1387.4 Q484.455 1387.4 487.51 1392.01 Q490.589 1396.59 490.589 1405.34 Q490.589 1414.07 487.51 1418.68 Q484.455 1423.26 478.644 1423.26 Q472.834 1423.26 469.756 1418.68 Q466.7 1414.07 466.7 1405.34 Q466.7 1396.59 469.756 1392.01 Q472.834 1387.4 478.644 1387.4 Z" fill="#000000" fill-rule="nonzero" fill-opacity="1"></path><path clip-path="url(#clip510)" d="M745.68 1418.65 L762 1418.65 L762 1422.59 L740.055 1422.59 L740.055 1418.65 Q742.717 1415.9 747.301 1411.27 Q751.907 1406.62 753.088 1405.27 Q755.333 1402.75 756.213 1401.01 Q757.115 1399.25 757.115 1397.56 Q757.115 1394.81 755.171 1393.07 Q753.25 1391.34 750.148 1391.34 Q747.949 1391.34 745.495 1392.1 Q743.065 1392.87 740.287 1394.42 L740.287 1389.69 Q743.111 1388.56 745.565 1387.98 Q748.018 1387.4 750.055 1387.4 Q755.426 1387.4 758.62 1390.09 Q761.814 1392.77 761.814 1397.26 Q761.814 1399.39 761.004 1401.31 Q760.217 1403.21 758.111 1405.81 Q757.532 1406.48 754.43 1409.69 Q751.328 1412.89 745.68 1418.65 Z" fill="#000000" fill-rule="nonzero" fill-opacity="1"></path><path clip-path="url(#clip510)" d="M771.814 1416.71 L776.699 1416.71 L776.699 1422.59 L771.814 1422.59 L771.814 1416.71 Z" fill="#000000" fill-rule="nonzero" fill-opacity="1"></path><path clip-path="url(#clip510)" d="M786.93 1388.03 L805.286 1388.03 L805.286 1391.96 L791.212 1391.96 L791.212 1400.44 Q792.231 1400.09 793.249 1399.93 Q794.268 1399.74 795.286 1399.74 Q801.073 1399.74 804.453 1402.91 Q807.833 1406.08 807.833 1411.5 Q807.833 1417.08 804.361 1420.18 Q800.888 1423.26 794.569 1423.26 Q792.393 1423.26 790.124 1422.89 Q787.879 1422.52 785.472 1421.78 L785.472 1417.08 Q787.555 1418.21 789.777 1418.77 Q791.999 1419.32 794.476 1419.32 Q798.481 1419.32 800.819 1417.22 Q803.157 1415.11 803.157 1411.5 Q803.157 1407.89 800.819 1405.78 Q798.481 1403.68 794.476 1403.68 Q792.601 1403.68 790.726 1404.09 Q788.874 1404.51 786.93 1405.39 L786.93 1388.03 Z" fill="#000000" fill-rule="nonzero" fill-opacity="1"></path><path clip-path="url(#clip510)" d="M1059.02 1388.03 L1077.38 1388.03 L1077.38 1391.96 L1063.31 1391.96 L1063.31 1400.44 Q1064.32 1400.09 1065.34 1399.93 Q1066.36 1399.74 1067.38 1399.74 Q1073.17 1399.74 1076.55 1402.91 Q1079.93 1406.08 1079.93 1411.5 Q1079.93 1417.08 1076.45 1420.18 Q1072.98 1423.26 1066.66 1423.26 Q1064.49 1423.26 1062.22 1422.89 Q1059.97 1422.52 1057.57 1421.78 L1057.57 1417.08 Q1059.65 1418.21 1061.87 1418.77 Q1064.09 1419.32 1066.57 1419.32 Q1070.57 1419.32 1072.91 1417.22 Q1075.25 1415.11 1075.25 1411.5 Q1075.25 1407.89 1072.91 1405.78 Q1070.57 1403.68 1066.57 1403.68 Q1064.7 1403.68 1062.82 1404.09 Q1060.97 1404.51 1059.02 1405.39 L1059.02 1388.03 Z" fill="#000000" fill-rule="nonzero" fill-opacity="1"></path><path clip-path="url(#clip510)" d="M1089.14 1416.71 L1094.02 1416.71 L1094.02 1422.59 L1089.14 1422.59 L1089.14 1416.71 Z" fill="#000000" fill-rule="nonzero" fill-opacity="1"></path><path clip-path="url(#clip510)" d="M1114.21 1391.11 Q1110.6 1391.11 1108.77 1394.67 Q1106.96 1398.21 1106.96 1405.34 Q1106.96 1412.45 1108.77 1416.01 Q1110.6 1419.56 1114.21 1419.56 Q1117.84 1419.56 1119.65 1416.01 Q1121.48 1412.45 1121.48 1405.34 Q1121.48 1398.21 1119.65 1394.67 Q1117.84 1391.11 1114.21 1391.11 M1114.21 1387.4 Q1120.02 1387.4 1123.07 1392.01 Q1126.15 1396.59 1126.15 1405.34 Q1126.15 1414.07 1123.07 1418.68 Q1120.02 1423.26 1114.21 1423.26 Q1108.4 1423.26 1105.32 1418.68 Q1102.26 1414.07 1102.26 1405.34 Q1102.26 1396.59 1105.32 1392.01 Q1108.4 1387.4 1114.21 1387.4 Z" fill="#000000" fill-rule="nonzero" fill-opacity="1"></path><path clip-path="url(#clip510)" d="M1376.09 1388.03 L1398.32 1388.03 L1398.32 1390.02 L1385.77 1422.59 L1380.89 1422.59 L1392.69 1391.96 L1376.09 1391.96 L1376.09 1388.03 Z" fill="#000000" fill-rule="nonzero" fill-opacity="1"></path><path clip-path="url(#clip510)" d="M1407.44 1416.71 L1412.32 1416.71 L1412.32 1422.59 L1407.44 1422.59 L1407.44 1416.71 Z" fill="#000000" fill-rule="nonzero" fill-opacity="1"></path><path clip-path="url(#clip510)" d="M1422.55 1388.03 L1440.91 1388.03 L1440.91 1391.96 L1426.83 1391.96 L1426.83 1400.44 Q1427.85 1400.09 1428.87 1399.93 Q1429.89 1399.74 1430.91 1399.74 Q1436.7 1399.74 1440.08 1402.91 Q1443.45 1406.08 1443.45 1411.5 Q1443.45 1417.08 1439.98 1420.18 Q1436.51 1423.26 1430.19 1423.26 Q1428.02 1423.26 1425.75 1422.89 Q1423.5 1422.52 1421.09 1421.78 L1421.09 1417.08 Q1423.18 1418.21 1425.4 1418.77 Q1427.62 1419.32 1430.1 1419.32 Q1434.1 1419.32 1436.44 1417.22 Q1438.78 1415.11 1438.78 1411.5 Q1438.78 1407.89 1436.44 1405.78 Q1434.1 1403.68 1430.1 1403.68 Q1428.22 1403.68 1426.35 1404.09 Q1424.5 1404.51 1422.55 1405.39 L1422.55 1388.03 Z" fill="#000000" fill-rule="nonzero" fill-opacity="1"></path><path clip-path="url(#clip510)" d="M1679.76 1418.65 L1687.4 1418.65 L1687.4 1392.29 L1679.09 1393.95 L1679.09 1389.69 L1687.35 1388.03 L1692.03 1388.03 L1692.03 1418.65 L1699.67 1418.65 L1699.67 1422.59 L1679.76 1422.59 L1679.76 1418.65 Z" fill="#000000" fill-rule="nonzero" fill-opacity="1"></path><path clip-path="url(#clip510)" d="M1719.11 1391.11 Q1715.5 1391.11 1713.67 1394.67 Q1711.87 1398.21 1711.87 1405.34 Q1711.87 1412.45 1713.67 1416.01 Q1715.5 1419.56 1719.11 1419.56 Q1722.75 1419.56 1724.55 1416.01 Q1726.38 1412.45 1726.38 1405.34 Q1726.38 1398.21 1724.55 1394.67 Q1722.75 1391.11 1719.11 1391.11 M1719.11 1387.4 Q1724.92 1387.4 1727.98 1392.01 Q1731.06 1396.59 1731.06 1405.34 Q1731.06 1414.07 1727.98 1418.68 Q1724.92 1423.26 1719.11 1423.26 Q1713.3 1423.26 1710.22 1418.68 Q1707.17 1414.07 1707.17 1405.34 Q1707.17 1396.59 1710.22 1392.01 Q1713.3 1387.4 1719.11 1387.4 Z" fill="#000000" fill-rule="nonzero" fill-opacity="1"></path><path clip-path="url(#clip510)" d="M1739.28 1416.71 L1744.16 1416.71 L1744.16 1422.59 L1739.28 1422.59 L1739.28 1416.71 Z" fill="#000000" fill-rule="nonzero" fill-opacity="1"></path><path clip-path="url(#clip510)" d="M1764.34 1391.11 Q1760.73 1391.11 1758.9 1394.67 Q1757.1 1398.21 1757.1 1405.34 Q1757.1 1412.45 1758.9 1416.01 Q1760.73 1419.56 1764.34 1419.56 Q1767.98 1419.56 1769.78 1416.01 Q1771.61 1412.45 1771.61 1405.34 Q1771.61 1398.21 1769.78 1394.67 Q1767.98 1391.11 1764.34 1391.11 M1764.34 1387.4 Q1770.15 1387.4 1773.21 1392.01 Q1776.29 1396.59 1776.29 1405.34 Q1776.29 1414.07 1773.21 1418.68 Q1770.15 1423.26 1764.34 1423.26 Q1758.53 1423.26 1755.46 1418.68 Q1752.4 1414.07 1752.4 1405.34 Q1752.4 1396.59 1755.46 1392.01 Q1758.53 1387.4 1764.34 1387.4 Z" fill="#000000" fill-rule="nonzero" fill-opacity="1"></path><path clip-path="url(#clip510)" d="M1998.17 1418.65 L2005.81 1418.65 L2005.81 1392.29 L1997.5 1393.95 L1997.5 1389.69 L2005.77 1388.03 L2010.44 1388.03 L2010.44 1418.65 L2018.08 1418.65 L2018.08 1422.59 L1998.17 1422.59 L1998.17 1418.65 Z" fill="#000000" fill-rule="nonzero" fill-opacity="1"></path><path clip-path="url(#clip510)" d="M2031.55 1418.65 L2047.87 1418.65 L2047.87 1422.59 L2025.93 1422.59 L2025.93 1418.65 Q2028.59 1415.9 2033.17 1411.27 Q2037.78 1406.62 2038.96 1405.27 Q2041.21 1402.75 2042.09 1401.01 Q2042.99 1399.25 2042.99 1397.56 Q2042.99 1394.81 2041.04 1393.07 Q2039.12 1391.34 2036.02 1391.34 Q2033.82 1391.34 2031.37 1392.1 Q2028.94 1392.87 2026.16 1394.42 L2026.16 1389.69 Q2028.98 1388.56 2031.44 1387.98 Q2033.89 1387.4 2035.93 1387.4 Q2041.3 1387.4 2044.49 1390.09 Q2047.69 1392.77 2047.69 1397.26 Q2047.69 1399.39 2046.88 1401.31 Q2046.09 1403.21 2043.98 1405.81 Q2043.41 1406.48 2040.3 1409.69 Q2037.2 1412.89 2031.55 1418.65 Z" fill="#000000" fill-rule="nonzero" fill-opacity="1"></path><path clip-path="url(#clip510)" d="M2057.69 1416.71 L2062.57 1416.71 L2062.57 1422.59 L2057.69 1422.59 L2057.69 1416.71 Z" fill="#000000" fill-rule="nonzero" fill-opacity="1"></path><path clip-path="url(#clip510)" d="M2072.8 1388.03 L2091.16 1388.03 L2091.16 1391.96 L2077.09 1391.96 L2077.09 1400.44 Q2078.1 1400.09 2079.12 1399.93 Q2080.14 1399.74 2081.16 1399.74 Q2086.95 1399.74 2090.33 1402.91 Q2093.71 1406.08 2093.71 1411.5 Q2093.71 1417.08 2090.23 1420.18 Q2086.76 1423.26 2080.44 1423.26 Q2078.27 1423.26 2076 1422.89 Q2073.75 1422.52 2071.35 1421.78 L2071.35 1417.08 Q2073.43 1418.21 2075.65 1418.77 Q2077.87 1419.32 2080.35 1419.32 Q2084.35 1419.32 2086.69 1417.22 Q2089.03 1415.11 2089.03 1411.5 Q2089.03 1407.89 2086.69 1405.78 Q2084.35 1403.68 2080.35 1403.68 Q2078.48 1403.68 2076.6 1404.09 Q2074.75 1404.51 2072.8 1405.39 L2072.8 1388.03 Z" fill="#000000" fill-rule="nonzero" fill-opacity="1"></path><path clip-path="url(#clip510)" d="M1141.33 1457.53 L1171.37 1457.53 L1171.37 1462.94 L1147.76 1462.94 L1147.76 1477.01 L1170.39 1477.01 L1170.39 1482.42 L1147.76 1482.42 L1147.76 1499.64 L1171.95 1499.64 L1171.95 1505.05 L1141.33 1505.05 L1141.33 1457.53 Z" fill="#000000" fill-rule="nonzero" fill-opacity="1"></path><path clip-path="url(#clip510)" d="M1182.26 1455.53 L1188.11 1455.53 L1188.11 1505.05 L1182.26 1505.05 L1182.26 1455.53 Z" fill="#000000" fill-rule="nonzero" fill-opacity="1"></path><path clip-path="url(#clip510)" d="M1230.86 1485.76 L1230.86 1488.63 L1203.93 1488.63 Q1204.32 1494.68 1207.56 1497.86 Q1210.84 1501.01 1216.67 1501.01 Q1220.04 1501.01 1223.19 1500.18 Q1226.37 1499.35 1229.49 1497.7 L1229.49 1503.24 Q1226.34 1504.57 1223.03 1505.27 Q1219.72 1505.97 1216.32 1505.97 Q1207.79 1505.97 1202.79 1501.01 Q1197.82 1496.04 1197.82 1487.58 Q1197.82 1478.83 1202.53 1473.7 Q1207.28 1468.54 1215.3 1468.54 Q1222.49 1468.54 1226.66 1473.19 Q1230.86 1477.81 1230.86 1485.76 M1225 1484.04 Q1224.94 1479.24 1222.3 1476.37 Q1219.69 1473.51 1215.36 1473.51 Q1210.46 1473.51 1207.5 1476.28 Q1204.57 1479.05 1204.12 1484.08 L1225 1484.04 Z" fill="#000000" fill-rule="nonzero" fill-opacity="1"></path><path clip-path="url(#clip510)" d="M1236.27 1469.4 L1242.48 1469.4 L1253.62 1499.32 L1264.76 1469.4 L1270.96 1469.4 L1257.6 1505.05 L1249.64 1505.05 L1236.27 1469.4 Z" fill="#000000" fill-rule="nonzero" fill-opacity="1"></path><path clip-path="url(#clip510)" d="M1295.25 1487.13 Q1288.15 1487.13 1285.41 1488.76 Q1282.68 1490.38 1282.68 1494.29 Q1282.68 1497.41 1284.71 1499.26 Q1286.78 1501.07 1290.32 1501.07 Q1295.19 1501.07 1298.11 1497.64 Q1301.07 1494.17 1301.07 1488.44 L1301.07 1487.13 L1295.25 1487.13 M1306.93 1484.71 L1306.93 1505.05 L1301.07 1505.05 L1301.07 1499.64 Q1299.07 1502.89 1296.08 1504.45 Q1293.09 1505.97 1288.76 1505.97 Q1283.28 1505.97 1280.04 1502.92 Q1276.82 1499.83 1276.82 1494.68 Q1276.82 1488.66 1280.83 1485.6 Q1284.87 1482.55 1292.86 1482.55 L1301.07 1482.55 L1301.07 1481.98 Q1301.07 1477.93 1298.4 1475.74 Q1295.76 1473.51 1290.95 1473.51 Q1287.9 1473.51 1285 1474.24 Q1282.1 1474.97 1279.43 1476.44 L1279.43 1471.03 Q1282.65 1469.79 1285.67 1469.18 Q1288.69 1468.54 1291.56 1468.54 Q1299.29 1468.54 1303.11 1472.55 Q1306.93 1476.57 1306.93 1484.71 Z" fill="#000000" fill-rule="nonzero" fill-opacity="1"></path><path clip-path="url(#clip510)" d="M1324.79 1459.28 L1324.79 1469.4 L1336.85 1469.4 L1336.85 1473.96 L1324.79 1473.96 L1324.79 1493.31 Q1324.79 1497.67 1325.96 1498.91 Q1327.17 1500.15 1330.83 1500.15 L1336.85 1500.15 L1336.85 1505.05 L1330.83 1505.05 Q1324.05 1505.05 1321.48 1502.54 Q1318.9 1499.99 1318.9 1493.31 L1318.9 1473.96 L1314.6 1473.96 L1314.6 1469.4 L1318.9 1469.4 L1318.9 1459.28 L1324.79 1459.28 Z" fill="#000000" fill-rule="nonzero" fill-opacity="1"></path><path clip-path="url(#clip510)" d="M1344.55 1469.4 L1350.41 1469.4 L1350.41 1505.05 L1344.55 1505.05 L1344.55 1469.4 M1344.55 1455.53 L1350.41 1455.53 L1350.41 1462.94 L1344.55 1462.94 L1344.55 1455.53 Z" fill="#000000" fill-rule="nonzero" fill-opacity="1"></path><path clip-path="url(#clip510)" d="M1376.48 1473.51 Q1371.77 1473.51 1369.03 1477.2 Q1366.29 1480.86 1366.29 1487.26 Q1366.29 1493.66 1369 1497.35 Q1371.73 1501.01 1376.48 1501.01 Q1381.16 1501.01 1383.89 1497.32 Q1386.63 1493.63 1386.63 1487.26 Q1386.63 1480.93 1383.89 1477.23 Q1381.16 1473.51 1376.48 1473.51 M1376.48 1468.54 Q1384.12 1468.54 1388.48 1473.51 Q1392.84 1478.47 1392.84 1487.26 Q1392.84 1496.01 1388.48 1501.01 Q1384.12 1505.97 1376.48 1505.97 Q1368.81 1505.97 1364.45 1501.01 Q1360.12 1496.01 1360.12 1487.26 Q1360.12 1478.47 1364.45 1473.51 Q1368.81 1468.54 1376.48 1468.54 Z" fill="#000000" fill-rule="nonzero" fill-opacity="1"></path><path clip-path="url(#clip510)" d="M1432.18 1483.54 L1432.18 1505.05 L1426.32 1505.05 L1426.32 1483.73 Q1426.32 1478.67 1424.35 1476.15 Q1422.37 1473.64 1418.43 1473.64 Q1413.68 1473.64 1410.95 1476.66 Q1408.21 1479.68 1408.21 1484.9 L1408.21 1505.05 L1402.32 1505.05 L1402.32 1469.4 L1408.21 1469.4 L1408.21 1474.94 Q1410.31 1471.73 1413.14 1470.14 Q1416.01 1468.54 1419.73 1468.54 Q1425.87 1468.54 1429.03 1472.36 Q1432.18 1476.15 1432.18 1483.54 Z" fill="#000000" fill-rule="nonzero" fill-opacity="1"></path><path clip-path="url(#clip510)" d="M1478.65 1455.59 Q1474.38 1462.91 1472.31 1470.07 Q1470.24 1477.23 1470.24 1484.59 Q1470.24 1491.94 1472.31 1499.16 Q1474.41 1506.36 1478.65 1513.65 L1473.55 1513.65 Q1468.78 1506.17 1466.39 1498.94 Q1464.04 1491.72 1464.04 1484.59 Q1464.04 1477.49 1466.39 1470.29 Q1468.75 1463.1 1473.55 1455.59 L1478.65 1455.59 Z" fill="#000000" fill-rule="nonzero" fill-opacity="1"></path><path clip-path="url(#clip510)" d="M1508.06 1455.53 L1508.06 1460.4 L1502.45 1460.4 Q1499.3 1460.4 1498.06 1461.67 Q1496.85 1462.94 1496.85 1466.25 L1496.85 1469.4 L1506.5 1469.4 L1506.5 1473.96 L1496.85 1473.96 L1496.85 1505.05 L1490.96 1505.05 L1490.96 1473.96 L1485.36 1473.96 L1485.36 1469.4 L1490.96 1469.4 L1490.96 1466.92 Q1490.96 1460.97 1493.73 1458.26 Q1496.5 1455.53 1502.52 1455.53 L1508.06 1455.53 Z" fill="#000000" fill-rule="nonzero" fill-opacity="1"></path><path clip-path="url(#clip510)" d="M1517.6 1459.28 L1517.6 1469.4 L1529.67 1469.4 L1529.67 1473.96 L1517.6 1473.96 L1517.6 1493.31 Q1517.6 1497.67 1518.78 1498.91 Q1519.99 1500.15 1523.65 1500.15 L1529.67 1500.15 L1529.67 1505.05 L1523.65 1505.05 Q1516.87 1505.05 1514.29 1502.54 Q1511.72 1499.99 1511.72 1493.31 L1511.72 1473.96 L1507.42 1473.96 L1507.42 1469.4 L1511.72 1469.4 L1511.72 1459.28 L1517.6 1459.28 Z" fill="#000000" fill-rule="nonzero" fill-opacity="1"></path><path clip-path="url(#clip510)" d="M1536.45 1455.59 L1541.54 1455.59 Q1546.31 1463.1 1548.67 1470.29 Q1551.06 1477.49 1551.06 1484.59 Q1551.06 1491.72 1548.67 1498.94 Q1546.31 1506.17 1541.54 1513.65 L1536.45 1513.65 Q1540.68 1506.36 1542.75 1499.16 Q1544.85 1491.94 1544.85 1484.59 Q1544.85 1477.23 1542.75 1470.07 Q1540.68 1462.91 1536.45 1455.59 Z" fill="#000000" fill-rule="nonzero" fill-opacity="1"></path><polyline clip-path="url(#clip512)" style="stroke:#000000; stroke-linecap:round; stroke-linejoin:round; stroke-width:2; stroke-opacity:0.1; fill:none" points="402.619,1265.09 2289.76,1265.09 "></polyline>
<polyline clip-path="url(#clip512)" style="stroke:#000000; stroke-linecap:round; stroke-linejoin:round; stroke-width:2; stroke-opacity:0.1; fill:none" points="402.619,1029.16 2289.76,1029.16 "></polyline>
<polyline clip-path="url(#clip512)" style="stroke:#000000; stroke-linecap:round; stroke-linejoin:round; stroke-width:2; stroke-opacity:0.1; fill:none" points="402.619,793.231 2289.76,793.231 "></polyline>
<polyline clip-path="url(#clip512)" style="stroke:#000000; stroke-linecap:round; stroke-linejoin:round; stroke-width:2; stroke-opacity:0.1; fill:none" points="402.619,557.301 2289.76,557.301 "></polyline>
<polyline clip-path="url(#clip512)" style="stroke:#000000; stroke-linecap:round; stroke-linejoin:round; stroke-width:2; stroke-opacity:0.1; fill:none" points="402.619,321.37 2289.76,321.37 "></polyline>
<polyline clip-path="url(#clip510)" style="stroke:#000000; stroke-linecap:round; stroke-linejoin:round; stroke-width:4; stroke-opacity:1; fill:none" points="402.619,1360.19 402.619,246.944 "></polyline>
<polyline clip-path="url(#clip510)" style="stroke:#000000; stroke-linecap:round; stroke-linejoin:round; stroke-width:4; stroke-opacity:1; fill:none" points="402.619,1265.09 421.517,1265.09 "></polyline>
<polyline clip-path="url(#clip510)" style="stroke:#000000; stroke-linecap:round; stroke-linejoin:round; stroke-width:4; stroke-opacity:1; fill:none" points="402.619,1029.16 421.517,1029.16 "></polyline>
<polyline clip-path="url(#clip510)" style="stroke:#000000; stroke-linecap:round; stroke-linejoin:round; stroke-width:4; stroke-opacity:1; fill:none" points="402.619,793.231 421.517,793.231 "></polyline>
<polyline clip-path="url(#clip510)" style="stroke:#000000; stroke-linecap:round; stroke-linejoin:round; stroke-width:4; stroke-opacity:1; fill:none" points="402.619,557.301 421.517,557.301 "></polyline>
<polyline clip-path="url(#clip510)" style="stroke:#000000; stroke-linecap:round; stroke-linejoin:round; stroke-width:4; stroke-opacity:1; fill:none" points="402.619,321.37 421.517,321.37 "></polyline>
<path clip-path="url(#clip510)" d="M184.035 1284.89 L200.354 1284.89 L200.354 1288.82 L178.41 1288.82 L178.41 1284.89 Q181.072 1282.13 185.655 1277.5 Q190.261 1272.85 191.442 1271.51 Q193.687 1268.98 194.567 1267.25 Q195.47 1265.49 195.47 1263.8 Q195.47 1261.04 193.525 1259.31 Q191.604 1257.57 188.502 1257.57 Q186.303 1257.57 183.849 1258.33 Q181.419 1259.1 178.641 1260.65 L178.641 1255.93 Q181.465 1254.79 183.919 1254.21 Q186.373 1253.64 188.41 1253.64 Q193.78 1253.64 196.974 1256.32 Q200.169 1259.01 200.169 1263.5 Q200.169 1265.63 199.359 1267.55 Q198.572 1269.45 196.465 1272.04 Q195.886 1272.71 192.785 1275.93 Q189.683 1279.12 184.035 1284.89 Z" fill="#000000" fill-rule="nonzero" fill-opacity="1"></path><path clip-path="url(#clip510)" d="M210.169 1282.94 L215.053 1282.94 L215.053 1288.82 L210.169 1288.82 L210.169 1282.94 Z" fill="#000000" fill-rule="nonzero" fill-opacity="1"></path><path clip-path="url(#clip510)" d="M235.238 1257.34 Q231.627 1257.34 229.798 1260.9 Q227.993 1264.45 227.993 1271.57 Q227.993 1278.68 229.798 1282.25 Q231.627 1285.79 235.238 1285.79 Q238.872 1285.79 240.678 1282.25 Q242.507 1278.68 242.507 1271.57 Q242.507 1264.45 240.678 1260.9 Q238.872 1257.34 235.238 1257.34 M235.238 1253.64 Q241.048 1253.64 244.104 1258.24 Q247.182 1262.82 247.182 1271.57 Q247.182 1280.3 244.104 1284.91 Q241.048 1289.49 235.238 1289.49 Q229.428 1289.49 226.349 1284.91 Q223.294 1280.3 223.294 1271.57 Q223.294 1262.82 226.349 1258.24 Q229.428 1253.64 235.238 1253.64 Z" fill="#000000" fill-rule="nonzero" fill-opacity="1"></path><path clip-path="url(#clip510)" d="M283.571 1263.36 L272.993 1273.98 L283.571 1284.56 L280.817 1287.36 L270.192 1276.74 L259.567 1287.36 L256.835 1284.56 L267.391 1273.98 L256.835 1263.36 L259.567 1260.56 L270.192 1271.18 L280.817 1260.56 L283.571 1263.36 Z" fill="#000000" fill-rule="nonzero" fill-opacity="1"></path><path clip-path="url(#clip510)" d="M295.932 1284.89 L303.571 1284.89 L303.571 1258.52 L295.261 1260.19 L295.261 1255.93 L303.525 1254.26 L308.201 1254.26 L308.201 1284.89 L315.84 1284.89 L315.84 1288.82 L295.932 1288.82 L295.932 1284.89 Z" fill="#000000" fill-rule="nonzero" fill-opacity="1"></path><path clip-path="url(#clip510)" d="M335.284 1257.34 Q331.673 1257.34 329.844 1260.9 Q328.039 1264.45 328.039 1271.57 Q328.039 1278.68 329.844 1282.25 Q331.673 1285.79 335.284 1285.79 Q338.918 1285.79 340.724 1282.25 Q342.552 1278.68 342.552 1271.57 Q342.552 1264.45 340.724 1260.9 Q338.918 1257.34 335.284 1257.34 M335.284 1253.64 Q341.094 1253.64 344.15 1258.24 Q347.228 1262.82 347.228 1271.57 Q347.228 1280.3 344.15 1284.91 Q341.094 1289.49 335.284 1289.49 Q329.474 1289.49 326.395 1284.91 Q323.339 1280.3 323.339 1271.57 Q323.339 1262.82 326.395 1258.24 Q329.474 1253.64 335.284 1253.64 Z" fill="#000000" fill-rule="nonzero" fill-opacity="1"></path><path clip-path="url(#clip510)" d="M357.253 1245.86 Q354.695 1245.86 353.19 1247.6 Q351.704 1249.35 351.704 1252.4 Q351.704 1255.43 353.19 1257.2 Q354.695 1258.95 357.253 1258.95 Q359.811 1258.95 361.296 1257.2 Q362.801 1255.43 362.801 1252.4 Q362.801 1249.35 361.296 1247.6 Q359.811 1245.86 357.253 1245.86 M364.795 1233.95 L364.795 1237.41 Q363.365 1236.73 361.898 1236.38 Q360.45 1236.02 359.021 1236.02 Q355.259 1236.02 353.266 1238.56 Q351.291 1241.1 351.009 1246.23 Q352.118 1244.6 353.792 1243.73 Q355.466 1242.85 357.478 1242.85 Q361.71 1242.85 364.155 1245.42 Q366.619 1247.98 366.619 1252.4 Q366.619 1256.73 364.061 1259.34 Q361.503 1261.96 357.253 1261.96 Q352.382 1261.96 349.805 1258.23 Q347.228 1254.49 347.228 1247.4 Q347.228 1240.74 350.388 1236.79 Q353.548 1232.82 358.87 1232.82 Q360.3 1232.82 361.748 1233.1 Q363.215 1233.39 364.795 1233.95 Z" fill="#000000" fill-rule="nonzero" fill-opacity="1"></path><path clip-path="url(#clip510)" d="M192.854 1022.4 L181.049 1040.85 L192.854 1040.85 L192.854 1022.4 M191.627 1018.33 L197.507 1018.33 L197.507 1040.85 L202.437 1040.85 L202.437 1044.74 L197.507 1044.74 L197.507 1052.89 L192.854 1052.89 L192.854 1044.74 L177.252 1044.74 L177.252 1040.23 L191.627 1018.33 Z" fill="#000000" fill-rule="nonzero" fill-opacity="1"></path><path clip-path="url(#clip510)" d="M210.169 1047.01 L215.053 1047.01 L215.053 1052.89 L210.169 1052.89 L210.169 1047.01 Z" fill="#000000" fill-rule="nonzero" fill-opacity="1"></path><path clip-path="url(#clip510)" d="M235.238 1021.41 Q231.627 1021.41 229.798 1024.97 Q227.993 1028.51 227.993 1035.64 Q227.993 1042.75 229.798 1046.32 Q231.627 1049.86 235.238 1049.86 Q238.872 1049.86 240.678 1046.32 Q242.507 1042.75 242.507 1035.64 Q242.507 1028.51 240.678 1024.97 Q238.872 1021.41 235.238 1021.41 M235.238 1017.7 Q241.048 1017.7 244.104 1022.31 Q247.182 1026.89 247.182 1035.64 Q247.182 1044.37 244.104 1048.98 Q241.048 1053.56 235.238 1053.56 Q229.428 1053.56 226.349 1048.98 Q223.294 1044.37 223.294 1035.64 Q223.294 1026.89 226.349 1022.31 Q229.428 1017.7 235.238 1017.7 Z" fill="#000000" fill-rule="nonzero" fill-opacity="1"></path><path clip-path="url(#clip510)" d="M283.571 1027.43 L272.993 1038.05 L283.571 1048.63 L280.817 1051.43 L270.192 1040.81 L259.567 1051.43 L256.835 1048.63 L267.391 1038.05 L256.835 1027.43 L259.567 1024.63 L270.192 1035.25 L280.817 1024.63 L283.571 1027.43 Z" fill="#000000" fill-rule="nonzero" fill-opacity="1"></path><path clip-path="url(#clip510)" d="M295.932 1048.95 L303.571 1048.95 L303.571 1022.59 L295.261 1024.26 L295.261 1020 L303.525 1018.33 L308.201 1018.33 L308.201 1048.95 L315.84 1048.95 L315.84 1052.89 L295.932 1052.89 L295.932 1048.95 Z" fill="#000000" fill-rule="nonzero" fill-opacity="1"></path><path clip-path="url(#clip510)" d="M335.284 1021.41 Q331.673 1021.41 329.844 1024.97 Q328.039 1028.51 328.039 1035.64 Q328.039 1042.75 329.844 1046.32 Q331.673 1049.86 335.284 1049.86 Q338.918 1049.86 340.724 1046.32 Q342.552 1042.75 342.552 1035.64 Q342.552 1028.51 340.724 1024.97 Q338.918 1021.41 335.284 1021.41 M335.284 1017.7 Q341.094 1017.7 344.15 1022.31 Q347.228 1026.89 347.228 1035.64 Q347.228 1044.37 344.15 1048.98 Q341.094 1053.56 335.284 1053.56 Q329.474 1053.56 326.395 1048.98 Q323.339 1044.37 323.339 1035.64 Q323.339 1026.89 326.395 1022.31 Q329.474 1017.7 335.284 1017.7 Z" fill="#000000" fill-rule="nonzero" fill-opacity="1"></path><path clip-path="url(#clip510)" d="M357.253 1009.93 Q354.695 1009.93 353.19 1011.67 Q351.704 1013.42 351.704 1016.47 Q351.704 1019.5 353.19 1021.27 Q354.695 1023.02 357.253 1023.02 Q359.811 1023.02 361.296 1021.27 Q362.801 1019.5 362.801 1016.47 Q362.801 1013.42 361.296 1011.67 Q359.811 1009.93 357.253 1009.93 M364.795 998.02 L364.795 1001.48 Q363.365 1000.8 361.898 1000.45 Q360.45 1000.09 359.021 1000.09 Q355.259 1000.09 353.266 1002.63 Q351.291 1005.17 351.009 1010.3 Q352.118 1008.67 353.792 1007.8 Q355.466 1006.92 357.478 1006.92 Q361.71 1006.92 364.155 1009.49 Q366.619 1012.05 366.619 1016.47 Q366.619 1020.8 364.061 1023.41 Q361.503 1026.02 357.253 1026.02 Q352.382 1026.02 349.805 1022.3 Q347.228 1018.56 347.228 1011.47 Q347.228 1004.81 350.388 1000.86 Q353.548 996.891 358.87 996.891 Q360.3 996.891 361.748 997.173 Q363.215 997.456 364.795 998.02 Z" fill="#000000" fill-rule="nonzero" fill-opacity="1"></path><path clip-path="url(#clip510)" d="M190.586 797.815 Q187.437 797.815 185.586 799.968 Q183.757 802.121 183.757 805.871 Q183.757 809.598 185.586 811.774 Q187.437 813.927 190.586 813.927 Q193.734 813.927 195.562 811.774 Q197.414 809.598 197.414 805.871 Q197.414 802.121 195.562 799.968 Q193.734 797.815 190.586 797.815 M199.868 783.163 L199.868 787.422 Q198.109 786.589 196.303 786.149 Q194.521 785.709 192.761 785.709 Q188.132 785.709 185.678 788.834 Q183.248 791.959 182.9 798.278 Q184.266 796.265 186.326 795.2 Q188.386 794.112 190.863 794.112 Q196.072 794.112 199.081 797.283 Q202.113 800.431 202.113 805.871 Q202.113 811.195 198.965 814.413 Q195.817 817.63 190.586 817.63 Q184.59 817.63 181.419 813.047 Q178.248 808.44 178.248 799.714 Q178.248 791.519 182.137 786.658 Q186.025 781.774 192.576 781.774 Q194.336 781.774 196.118 782.121 Q197.923 782.468 199.868 783.163 Z" fill="#000000" fill-rule="nonzero" fill-opacity="1"></path><path clip-path="url(#clip510)" d="M210.169 811.079 L215.053 811.079 L215.053 816.959 L210.169 816.959 L210.169 811.079 Z" fill="#000000" fill-rule="nonzero" fill-opacity="1"></path><path clip-path="url(#clip510)" d="M235.238 785.478 Q231.627 785.478 229.798 789.042 Q227.993 792.584 227.993 799.714 Q227.993 806.82 229.798 810.385 Q231.627 813.927 235.238 813.927 Q238.872 813.927 240.678 810.385 Q242.507 806.82 242.507 799.714 Q242.507 792.584 240.678 789.042 Q238.872 785.478 235.238 785.478 M235.238 781.774 Q241.048 781.774 244.104 786.38 Q247.182 790.964 247.182 799.714 Q247.182 808.44 244.104 813.047 Q241.048 817.63 235.238 817.63 Q229.428 817.63 226.349 813.047 Q223.294 808.44 223.294 799.714 Q223.294 790.964 226.349 786.38 Q229.428 781.774 235.238 781.774 Z" fill="#000000" fill-rule="nonzero" fill-opacity="1"></path><path clip-path="url(#clip510)" d="M283.571 791.496 L272.993 802.121 L283.571 812.7 L280.817 815.501 L270.192 804.876 L259.567 815.501 L256.835 812.7 L267.391 802.121 L256.835 791.496 L259.567 788.695 L270.192 799.32 L280.817 788.695 L283.571 791.496 Z" fill="#000000" fill-rule="nonzero" fill-opacity="1"></path><path clip-path="url(#clip510)" d="M295.932 813.024 L303.571 813.024 L303.571 786.658 L295.261 788.325 L295.261 784.066 L303.525 782.399 L308.201 782.399 L308.201 813.024 L315.84 813.024 L315.84 816.959 L295.932 816.959 L295.932 813.024 Z" fill="#000000" fill-rule="nonzero" fill-opacity="1"></path><path clip-path="url(#clip510)" d="M335.284 785.478 Q331.673 785.478 329.844 789.042 Q328.039 792.584 328.039 799.714 Q328.039 806.82 329.844 810.385 Q331.673 813.927 335.284 813.927 Q338.918 813.927 340.724 810.385 Q342.552 806.82 342.552 799.714 Q342.552 792.584 340.724 789.042 Q338.918 785.478 335.284 785.478 M335.284 781.774 Q341.094 781.774 344.15 786.38 Q347.228 790.964 347.228 799.714 Q347.228 808.44 344.15 813.047 Q341.094 817.63 335.284 817.63 Q329.474 817.63 326.395 813.047 Q323.339 808.44 323.339 799.714 Q323.339 790.964 326.395 786.38 Q329.474 781.774 335.284 781.774 Z" fill="#000000" fill-rule="nonzero" fill-opacity="1"></path><path clip-path="url(#clip510)" d="M357.253 773.994 Q354.695 773.994 353.19 775.744 Q351.704 777.493 351.704 780.54 Q351.704 783.568 353.19 785.336 Q354.695 787.085 357.253 787.085 Q359.811 787.085 361.296 785.336 Q362.801 783.568 362.801 780.54 Q362.801 777.493 361.296 775.744 Q359.811 773.994 357.253 773.994 M364.795 762.089 L364.795 765.55 Q363.365 764.873 361.898 764.515 Q360.45 764.158 359.021 764.158 Q355.259 764.158 353.266 766.697 Q351.291 769.236 351.009 774.371 Q352.118 772.734 353.792 771.869 Q355.466 770.985 357.478 770.985 Q361.71 770.985 364.155 773.562 Q366.619 776.12 366.619 780.54 Q366.619 784.865 364.061 787.48 Q361.503 790.094 357.253 790.094 Q352.382 790.094 349.805 786.37 Q347.228 782.627 347.228 775.537 Q347.228 768.879 350.388 764.929 Q353.548 760.961 358.87 760.961 Q360.3 760.961 361.748 761.243 Q363.215 761.525 364.795 762.089 Z" fill="#000000" fill-rule="nonzero" fill-opacity="1"></path><path clip-path="url(#clip510)" d="M190.007 564.616 Q186.674 564.616 184.752 566.399 Q182.854 568.181 182.854 571.306 Q182.854 574.431 184.752 576.213 Q186.674 577.996 190.007 577.996 Q193.34 577.996 195.261 576.213 Q197.183 574.408 197.183 571.306 Q197.183 568.181 195.261 566.399 Q193.363 564.616 190.007 564.616 M185.331 562.626 Q182.322 561.885 180.632 559.825 Q178.965 557.764 178.965 554.802 Q178.965 550.658 181.905 548.251 Q184.868 545.843 190.007 545.843 Q195.169 545.843 198.109 548.251 Q201.048 550.658 201.048 554.802 Q201.048 557.764 199.359 559.825 Q197.692 561.885 194.706 562.626 Q198.086 563.413 199.96 565.704 Q201.859 567.996 201.859 571.306 Q201.859 576.329 198.78 579.014 Q195.724 581.7 190.007 581.7 Q184.289 581.7 181.211 579.014 Q178.155 576.329 178.155 571.306 Q178.155 567.996 180.053 565.704 Q181.951 563.413 185.331 562.626 M183.618 555.241 Q183.618 557.927 185.285 559.431 Q186.974 560.936 190.007 560.936 Q193.016 560.936 194.706 559.431 Q196.419 557.927 196.419 555.241 Q196.419 552.556 194.706 551.052 Q193.016 549.547 190.007 549.547 Q186.974 549.547 185.285 551.052 Q183.618 552.556 183.618 555.241 Z" fill="#000000" fill-rule="nonzero" fill-opacity="1"></path><path clip-path="url(#clip510)" d="M210.169 575.149 L215.053 575.149 L215.053 581.028 L210.169 581.028 L210.169 575.149 Z" fill="#000000" fill-rule="nonzero" fill-opacity="1"></path><path clip-path="url(#clip510)" d="M235.238 549.547 Q231.627 549.547 229.798 553.112 Q227.993 556.653 227.993 563.783 Q227.993 570.889 229.798 574.454 Q231.627 577.996 235.238 577.996 Q238.872 577.996 240.678 574.454 Q242.507 570.889 242.507 563.783 Q242.507 556.653 240.678 553.112 Q238.872 549.547 235.238 549.547 M235.238 545.843 Q241.048 545.843 244.104 550.45 Q247.182 555.033 247.182 563.783 Q247.182 572.51 244.104 577.116 Q241.048 581.7 235.238 581.7 Q229.428 581.7 226.349 577.116 Q223.294 572.51 223.294 563.783 Q223.294 555.033 226.349 550.45 Q229.428 545.843 235.238 545.843 Z" fill="#000000" fill-rule="nonzero" fill-opacity="1"></path><path clip-path="url(#clip510)" d="M283.571 555.565 L272.993 566.19 L283.571 576.769 L280.817 579.57 L270.192 568.945 L259.567 579.57 L256.835 576.769 L267.391 566.19 L256.835 555.565 L259.567 552.765 L270.192 563.389 L280.817 552.765 L283.571 555.565 Z" fill="#000000" fill-rule="nonzero" fill-opacity="1"></path><path clip-path="url(#clip510)" d="M295.932 577.093 L303.571 577.093 L303.571 550.727 L295.261 552.394 L295.261 548.135 L303.525 546.468 L308.201 546.468 L308.201 577.093 L315.84 577.093 L315.84 581.028 L295.932 581.028 L295.932 577.093 Z" fill="#000000" fill-rule="nonzero" fill-opacity="1"></path><path clip-path="url(#clip510)" d="M335.284 549.547 Q331.673 549.547 329.844 553.112 Q328.039 556.653 328.039 563.783 Q328.039 570.889 329.844 574.454 Q331.673 577.996 335.284 577.996 Q338.918 577.996 340.724 574.454 Q342.552 570.889 342.552 563.783 Q342.552 556.653 340.724 553.112 Q338.918 549.547 335.284 549.547 M335.284 545.843 Q341.094 545.843 344.15 550.45 Q347.228 555.033 347.228 563.783 Q347.228 572.51 344.15 577.116 Q341.094 581.7 335.284 581.7 Q329.474 581.7 326.395 577.116 Q323.339 572.51 323.339 563.783 Q323.339 555.033 326.395 550.45 Q329.474 545.843 335.284 545.843 Z" fill="#000000" fill-rule="nonzero" fill-opacity="1"></path><path clip-path="url(#clip510)" d="M357.253 538.064 Q354.695 538.064 353.19 539.813 Q351.704 541.562 351.704 544.609 Q351.704 547.637 353.19 549.405 Q354.695 551.154 357.253 551.154 Q359.811 551.154 361.296 549.405 Q362.801 547.637 362.801 544.609 Q362.801 541.562 361.296 539.813 Q359.811 538.064 357.253 538.064 M364.795 526.159 L364.795 529.619 Q363.365 528.942 361.898 528.585 Q360.45 528.227 359.021 528.227 Q355.259 528.227 353.266 530.766 Q351.291 533.305 351.009 538.44 Q352.118 536.804 353.792 535.939 Q355.466 535.055 357.478 535.055 Q361.71 535.055 364.155 537.631 Q366.619 540.189 366.619 544.609 Q366.619 548.935 364.061 551.549 Q361.503 554.163 357.253 554.163 Q352.382 554.163 349.805 550.439 Q347.228 546.697 347.228 539.606 Q347.228 532.948 350.388 528.998 Q353.548 525.03 358.87 525.03 Q360.3 525.03 361.748 525.312 Q363.215 525.594 364.795 526.159 Z" fill="#000000" fill-rule="nonzero" fill-opacity="1"></path><path clip-path="url(#clip510)" d="M182.152 341.162 L189.791 341.162 L189.791 314.797 L181.481 316.463 L181.481 312.204 L189.745 310.538 L194.421 310.538 L194.421 341.162 L202.06 341.162 L202.06 345.098 L182.152 345.098 L182.152 341.162 Z" fill="#000000" fill-rule="nonzero" fill-opacity="1"></path><path clip-path="url(#clip510)" d="M211.504 339.218 L216.388 339.218 L216.388 345.098 L211.504 345.098 L211.504 339.218 Z" fill="#000000" fill-rule="nonzero" fill-opacity="1"></path><path clip-path="url(#clip510)" d="M236.573 313.616 Q232.962 313.616 231.134 317.181 Q229.328 320.723 229.328 327.852 Q229.328 334.959 231.134 338.524 Q232.962 342.065 236.573 342.065 Q240.208 342.065 242.013 338.524 Q243.842 334.959 243.842 327.852 Q243.842 320.723 242.013 317.181 Q240.208 313.616 236.573 313.616 M236.573 309.913 Q242.384 309.913 245.439 314.519 Q248.518 319.102 248.518 327.852 Q248.518 336.579 245.439 341.186 Q242.384 345.769 236.573 345.769 Q230.763 345.769 227.685 341.186 Q224.629 336.579 224.629 327.852 Q224.629 319.102 227.685 314.519 Q230.763 309.913 236.573 309.913 Z" fill="#000000" fill-rule="nonzero" fill-opacity="1"></path><path clip-path="url(#clip510)" d="M284.907 319.635 L274.328 330.26 L284.907 340.838 L282.152 343.639 L271.527 333.014 L260.902 343.639 L258.171 340.838 L268.726 330.26 L258.171 319.635 L260.902 316.834 L271.527 327.459 L282.152 316.834 L284.907 319.635 Z" fill="#000000" fill-rule="nonzero" fill-opacity="1"></path><path clip-path="url(#clip510)" d="M297.268 341.162 L304.906 341.162 L304.906 314.797 L296.596 316.463 L296.596 312.204 L304.86 310.538 L309.536 310.538 L309.536 341.162 L317.175 341.162 L317.175 345.098 L297.268 345.098 L297.268 341.162 Z" fill="#000000" fill-rule="nonzero" fill-opacity="1"></path><path clip-path="url(#clip510)" d="M336.619 313.616 Q333.008 313.616 331.179 317.181 Q329.374 320.723 329.374 327.852 Q329.374 334.959 331.179 338.524 Q333.008 342.065 336.619 342.065 Q340.253 342.065 342.059 338.524 Q343.888 334.959 343.888 327.852 Q343.888 320.723 342.059 317.181 Q340.253 313.616 336.619 313.616 M336.619 309.913 Q342.429 309.913 345.485 314.519 Q348.564 319.102 348.564 327.852 Q348.564 336.579 345.485 341.186 Q342.429 345.769 336.619 345.769 Q330.809 345.769 327.73 341.186 Q324.675 336.579 324.675 327.852 Q324.675 319.102 327.73 314.519 Q330.809 309.913 336.619 309.913 Z" fill="#000000" fill-rule="nonzero" fill-opacity="1"></path><path clip-path="url(#clip510)" d="M348.564 289.607 L366.619 289.607 L366.619 291.225 L356.425 317.687 L352.457 317.687 L362.049 292.805 L348.564 292.805 L348.564 289.607 Z" fill="#000000" fill-rule="nonzero" fill-opacity="1"></path><path clip-path="url(#clip510)" d="M83.8368 1175.4 Q83.8368 1182.41 89.0567 1186.54 Q94.2766 1190.65 103.284 1190.65 Q112.26 1190.65 117.48 1186.54 Q122.699 1182.41 122.699 1175.4 Q122.699 1168.4 117.48 1164.33 Q112.26 1160.22 103.284 1160.22 Q94.2766 1160.22 89.0567 1164.33 Q83.8368 1168.4 83.8368 1175.4 M78.6169 1175.4 Q78.6169 1165.41 85.3327 1159.42 Q92.0167 1153.44 103.284 1153.44 Q114.519 1153.44 121.235 1159.42 Q127.919 1165.41 127.919 1175.4 Q127.919 1185.43 121.235 1191.44 Q114.551 1197.43 103.284 1197.43 Q92.0167 1197.43 85.3327 1191.44 Q78.6169 1185.43 78.6169 1175.4 Z" fill="#000000" fill-rule="nonzero" fill-opacity="1"></path><path clip-path="url(#clip510)" d="M109.204 1118.05 Q102.743 1118.05 99.0827 1120.72 Q95.3906 1123.36 95.3906 1128.01 Q95.3906 1132.66 99.0827 1135.33 Q102.743 1137.97 109.204 1137.97 Q115.665 1137.97 119.357 1135.33 Q123.018 1132.66 123.018 1128.01 Q123.018 1123.36 119.357 1120.72 Q115.665 1118.05 109.204 1118.05 M96.7592 1137.97 Q93.5763 1136.13 92.0486 1133.33 Q90.489 1130.49 90.489 1126.58 Q90.489 1120.08 95.6452 1116.04 Q100.801 1111.97 109.204 1111.97 Q117.607 1111.97 122.763 1116.04 Q127.919 1120.08 127.919 1126.58 Q127.919 1130.49 126.392 1133.33 Q124.832 1136.13 121.649 1137.97 L126.996 1137.97 L126.996 1143.86 L77.4711 1143.86 L77.4711 1137.97 L96.7592 1137.97 Z" fill="#000000" fill-rule="nonzero" fill-opacity="1"></path><path clip-path="url(#clip510)" d="M91.3483 1102.26 L91.3483 1096.4 L127.633 1096.4 Q134.444 1096.4 137.5 1099.01 Q140.555 1101.59 140.555 1107.35 L140.555 1109.58 L135.59 1109.58 L135.59 1108.02 Q135.59 1104.68 134.03 1103.47 Q132.503 1102.26 127.633 1102.26 L91.3483 1102.26 M77.4711 1102.26 L77.4711 1096.4 L84.8871 1096.4 L84.8871 1102.26 L77.4711 1102.26 Z" fill="#000000" fill-rule="nonzero" fill-opacity="1"></path><path clip-path="url(#clip510)" d="M107.708 1053.66 L110.573 1053.66 L110.573 1080.59 Q116.62 1080.2 119.803 1076.96 Q122.954 1073.68 122.954 1067.85 Q122.954 1064.48 122.127 1061.33 Q121.299 1058.15 119.644 1055.03 L125.182 1055.03 Q126.519 1058.18 127.219 1061.49 Q127.919 1064.8 127.919 1068.2 Q127.919 1076.73 122.954 1081.73 Q117.989 1086.7 109.522 1086.7 Q100.77 1086.7 95.6452 1081.99 Q90.489 1077.24 90.489 1069.22 Q90.489 1062.03 95.1359 1057.86 Q99.7511 1053.66 107.708 1053.66 M105.989 1059.52 Q101.183 1059.58 98.3188 1062.22 Q95.4542 1064.83 95.4542 1069.16 Q95.4542 1074.06 98.2233 1077.02 Q100.992 1079.95 106.021 1080.39 L105.989 1059.52 Z" fill="#000000" fill-rule="nonzero" fill-opacity="1"></path><path clip-path="url(#clip510)" d="M92.717 1018.39 L98.1915 1018.39 Q96.8228 1020.88 96.1544 1023.39 Q95.4542 1025.87 95.4542 1028.42 Q95.4542 1034.12 99.0827 1037.27 Q102.679 1040.42 109.204 1040.42 Q115.729 1040.42 119.357 1037.27 Q122.954 1034.12 122.954 1028.42 Q122.954 1025.87 122.286 1023.39 Q121.585 1020.88 120.217 1018.39 L125.628 1018.39 Q126.773 1020.84 127.346 1023.49 Q127.919 1026.1 127.919 1029.06 Q127.919 1037.11 122.859 1041.85 Q117.798 1046.59 109.204 1046.59 Q100.483 1046.59 95.486 1041.82 Q90.489 1037.01 90.489 1028.67 Q90.489 1025.97 91.0619 1023.39 Q91.603 1020.81 92.717 1018.39 Z" fill="#000000" fill-rule="nonzero" fill-opacity="1"></path><path clip-path="url(#clip510)" d="M81.2269 1002.41 L91.3483 1002.41 L91.3483 990.352 L95.8998 990.352 L95.8998 1002.41 L115.252 1002.41 Q119.612 1002.41 120.853 1001.24 Q122.095 1000.03 122.095 996.367 L122.095 990.352 L126.996 990.352 L126.996 996.367 Q126.996 1003.15 124.482 1005.72 Q121.936 1008.3 115.252 1008.3 L95.8998 1008.3 L95.8998 1012.6 L91.3483 1012.6 L91.3483 1008.3 L81.2269 1008.3 L81.2269 1002.41 Z" fill="#000000" fill-rule="nonzero" fill-opacity="1"></path><path clip-path="url(#clip510)" d="M91.3483 982.649 L91.3483 976.793 L126.996 976.793 L126.996 982.649 L91.3483 982.649 M77.4711 982.649 L77.4711 976.793 L84.8871 976.793 L84.8871 982.649 L77.4711 982.649 Z" fill="#000000" fill-rule="nonzero" fill-opacity="1"></path><path clip-path="url(#clip510)" d="M91.3483 968.74 L91.3483 962.534 L121.267 951.394 L91.3483 940.254 L91.3483 934.047 L126.996 947.415 L126.996 955.372 L91.3483 968.74 Z" fill="#000000" fill-rule="nonzero" fill-opacity="1"></path><path clip-path="url(#clip510)" d="M107.708 895.471 L110.573 895.471 L110.573 922.398 Q116.62 922.016 119.803 918.769 Q122.954 915.491 122.954 909.666 Q122.954 906.293 122.127 903.142 Q121.299 899.959 119.644 896.84 L125.182 896.84 Q126.519 899.991 127.219 903.301 Q127.919 906.611 127.919 910.017 Q127.919 918.547 122.954 923.544 Q117.989 928.509 109.522 928.509 Q100.77 928.509 95.6452 923.798 Q90.489 919.056 90.489 911.035 Q90.489 903.842 95.1359 899.672 Q99.7511 895.471 107.708 895.471 M105.989 901.327 Q101.183 901.391 98.3188 904.033 Q95.4542 906.643 95.4542 910.971 Q95.4542 915.873 98.2233 918.833 Q100.992 921.761 106.021 922.207 L105.989 901.327 Z" fill="#000000" fill-rule="nonzero" fill-opacity="1"></path><path clip-path="url(#clip510)" d="M77.4711 847.092 L82.3409 847.092 L82.3409 852.693 Q82.3409 855.844 83.614 857.086 Q84.8871 858.295 88.1973 858.295 L91.3483 858.295 L91.3483 848.651 L95.8998 848.651 L95.8998 858.295 L126.996 858.295 L126.996 864.183 L95.8998 864.183 L95.8998 869.785 L91.3483 869.785 L91.3483 864.183 L88.8657 864.183 Q82.9138 864.183 80.2083 861.414 Q77.4711 858.645 77.4711 852.63 L77.4711 847.092 Z" fill="#000000" fill-rule="nonzero" fill-opacity="1"></path><path clip-path="url(#clip510)" d="M112.928 842.795 L91.3483 842.795 L91.3483 836.938 L112.705 836.938 Q117.766 836.938 120.312 834.965 Q122.827 832.991 122.827 829.045 Q122.827 824.302 119.803 821.565 Q116.779 818.796 111.559 818.796 L91.3483 818.796 L91.3483 812.939 L126.996 812.939 L126.996 818.796 L121.522 818.796 Q124.768 820.928 126.36 823.761 Q127.919 826.562 127.919 830.286 Q127.919 836.429 124.1 839.612 Q120.28 842.795 112.928 842.795 M90.489 828.058 L90.489 828.058 Z" fill="#000000" fill-rule="nonzero" fill-opacity="1"></path><path clip-path="url(#clip510)" d="M105.48 771.244 L126.996 771.244 L126.996 777.101 L105.671 777.101 Q100.61 777.101 98.096 779.074 Q95.5815 781.047 95.5815 784.994 Q95.5815 789.736 98.6052 792.474 Q101.629 795.211 106.849 795.211 L126.996 795.211 L126.996 801.099 L91.3483 801.099 L91.3483 795.211 L96.8865 795.211 Q93.6718 793.11 92.0804 790.278 Q90.489 787.413 90.489 783.689 Q90.489 777.546 94.3084 774.395 Q98.096 771.244 105.48 771.244 Z" fill="#000000" fill-rule="nonzero" fill-opacity="1"></path><path clip-path="url(#clip510)" d="M92.717 733.909 L98.1915 733.909 Q96.8228 736.392 96.1544 738.906 Q95.4542 741.389 95.4542 743.935 Q95.4542 749.633 99.0827 752.784 Q102.679 755.935 109.204 755.935 Q115.729 755.935 119.357 752.784 Q122.954 749.633 122.954 743.935 Q122.954 741.389 122.286 738.906 Q121.585 736.392 120.217 733.909 L125.628 733.909 Q126.773 736.36 127.346 739.002 Q127.919 741.612 127.919 744.572 Q127.919 752.624 122.859 757.367 Q117.798 762.109 109.204 762.109 Q100.483 762.109 95.486 757.335 Q90.489 752.529 90.489 744.19 Q90.489 741.484 91.0619 738.906 Q91.603 736.328 92.717 733.909 Z" fill="#000000" fill-rule="nonzero" fill-opacity="1"></path><path clip-path="url(#clip510)" d="M81.2269 717.931 L91.3483 717.931 L91.3483 705.868 L95.8998 705.868 L95.8998 717.931 L115.252 717.931 Q119.612 717.931 120.853 716.754 Q122.095 715.544 122.095 711.884 L122.095 705.868 L126.996 705.868 L126.996 711.884 Q126.996 718.663 124.482 721.241 Q121.936 723.82 115.252 723.82 L95.8998 723.82 L95.8998 728.116 L91.3483 728.116 L91.3483 723.82 L81.2269 723.82 L81.2269 717.931 Z" fill="#000000" fill-rule="nonzero" fill-opacity="1"></path><path clip-path="url(#clip510)" d="M91.3483 698.166 L91.3483 692.309 L126.996 692.309 L126.996 698.166 L91.3483 698.166 M77.4711 698.166 L77.4711 692.309 L84.8871 692.309 L84.8871 698.166 L77.4711 698.166 Z" fill="#000000" fill-rule="nonzero" fill-opacity="1"></path><path clip-path="url(#clip510)" d="M95.4542 666.242 Q95.4542 670.952 99.1463 673.69 Q102.807 676.427 109.204 676.427 Q115.602 676.427 119.294 673.721 Q122.954 670.984 122.954 666.242 Q122.954 661.563 119.262 658.826 Q115.57 656.088 109.204 656.088 Q102.87 656.088 99.1781 658.826 Q95.4542 661.563 95.4542 666.242 M90.489 666.242 Q90.489 658.603 95.4542 654.242 Q100.419 649.882 109.204 649.882 Q117.957 649.882 122.954 654.242 Q127.919 658.603 127.919 666.242 Q127.919 673.912 122.954 678.273 Q117.957 682.602 109.204 682.602 Q100.419 682.602 95.4542 678.273 Q90.489 673.912 90.489 666.242 Z" fill="#000000" fill-rule="nonzero" fill-opacity="1"></path><path clip-path="url(#clip510)" d="M105.48 610.542 L126.996 610.542 L126.996 616.398 L105.671 616.398 Q100.61 616.398 98.096 618.372 Q95.5815 620.345 95.5815 624.292 Q95.5815 629.034 98.6052 631.771 Q101.629 634.509 106.849 634.509 L126.996 634.509 L126.996 640.397 L91.3483 640.397 L91.3483 634.509 L96.8865 634.509 Q93.6718 632.408 92.0804 629.575 Q90.489 626.711 90.489 622.987 Q90.489 616.844 94.3084 613.693 Q98.096 610.542 105.48 610.542 Z" fill="#000000" fill-rule="nonzero" fill-opacity="1"></path><path clip-path="url(#clip510)" d="M91.3483 582.342 L91.3483 576.135 L121.267 564.995 L91.3483 553.855 L91.3483 547.649 L126.996 561.017 L126.996 568.974 L91.3483 582.342 Z" fill="#000000" fill-rule="nonzero" fill-opacity="1"></path><path clip-path="url(#clip510)" d="M109.077 523.363 Q109.077 530.461 110.7 533.199 Q112.323 535.936 116.238 535.936 Q119.357 535.936 121.203 533.899 Q123.018 531.83 123.018 528.297 Q123.018 523.427 119.58 520.499 Q116.111 517.539 110.382 517.539 L109.077 517.539 L109.077 523.363 M106.658 511.682 L126.996 511.682 L126.996 517.539 L121.585 517.539 Q124.832 519.544 126.392 522.536 Q127.919 525.528 127.919 529.857 Q127.919 535.331 124.864 538.578 Q121.776 541.792 116.62 541.792 Q110.605 541.792 107.549 537.782 Q104.494 533.74 104.494 525.751 L104.494 517.539 L103.921 517.539 Q99.8784 517.539 97.6822 520.212 Q95.4542 522.854 95.4542 527.66 Q95.4542 530.716 96.1863 533.612 Q96.9183 536.509 98.3824 539.182 L92.9716 539.182 Q91.7303 535.968 91.1255 532.944 Q90.489 529.92 90.489 527.056 Q90.489 519.321 94.4994 515.502 Q98.5097 511.682 106.658 511.682 Z" fill="#000000" fill-rule="nonzero" fill-opacity="1"></path><path clip-path="url(#clip510)" d="M77.4711 499.619 L77.4711 493.763 L126.996 493.763 L126.996 499.619 L77.4711 499.619 Z" fill="#000000" fill-rule="nonzero" fill-opacity="1"></path><path clip-path="url(#clip510)" d="M112.928 482.114 L91.3483 482.114 L91.3483 476.257 L112.705 476.257 Q117.766 476.257 120.312 474.284 Q122.827 472.311 122.827 468.364 Q122.827 463.621 119.803 460.884 Q116.779 458.115 111.559 458.115 L91.3483 458.115 L91.3483 452.259 L126.996 452.259 L126.996 458.115 L121.522 458.115 Q124.768 460.248 126.36 463.08 Q127.919 465.881 127.919 469.605 Q127.919 475.748 124.1 478.931 Q120.28 482.114 112.928 482.114 M90.489 467.377 L90.489 467.377 Z" fill="#000000" fill-rule="nonzero" fill-opacity="1"></path><path clip-path="url(#clip510)" d="M107.708 409.704 L110.573 409.704 L110.573 436.631 Q116.62 436.249 119.803 433.002 Q122.954 429.724 122.954 423.899 Q122.954 420.526 122.127 417.374 Q121.299 414.192 119.644 411.072 L125.182 411.072 Q126.519 414.223 127.219 417.534 Q127.919 420.844 127.919 424.249 Q127.919 432.779 122.954 437.777 Q117.989 442.742 109.522 442.742 Q100.77 442.742 95.6452 438.031 Q90.489 433.289 90.489 425.268 Q90.489 418.075 95.1359 413.905 Q99.7511 409.704 107.708 409.704 M105.989 415.56 Q101.183 415.624 98.3188 418.266 Q95.4542 420.876 95.4542 425.204 Q95.4542 430.106 98.2233 433.066 Q100.992 435.994 106.021 436.44 L105.989 415.56 Z" fill="#000000" fill-rule="nonzero" fill-opacity="1"></path><path clip-path="url(#clip510)" d="M483.855 38.8137 Q474.943 38.8137 469.677 45.4572 Q464.451 52.1007 464.451 63.5648 Q464.451 74.9883 469.677 81.6318 Q474.943 88.2753 483.855 88.2753 Q492.767 88.2753 497.952 81.6318 Q503.178 74.9883 503.178 63.5648 Q503.178 52.1007 497.952 45.4572 Q492.767 38.8137 483.855 38.8137 M483.855 32.1703 Q496.575 32.1703 504.191 40.7177 Q511.806 49.2246 511.806 63.5648 Q511.806 77.8645 504.191 86.4119 Q496.575 94.9188 483.855 94.9188 Q471.095 94.9188 463.439 86.4119 Q455.823 77.905 455.823 63.5648 Q455.823 49.2246 463.439 40.7177 Q471.095 32.1703 483.855 32.1703 Z" fill="#000000" fill-rule="nonzero" fill-opacity="1"></path><path clip-path="url(#clip510)" d="M556.852 71.0994 Q556.852 62.8761 553.45 58.2176 Q550.087 53.5185 544.173 53.5185 Q538.259 53.5185 534.856 58.2176 Q531.494 62.8761 531.494 71.0994 Q531.494 79.3228 534.856 84.0218 Q538.259 88.6804 544.173 88.6804 Q550.087 88.6804 553.45 84.0218 Q556.852 79.3228 556.852 71.0994 M531.494 55.2604 Q533.843 51.2095 537.408 49.2651 Q541.013 47.2801 545.996 47.2801 Q554.26 47.2801 559.405 53.8426 Q564.59 60.4051 564.59 71.0994 Q564.59 81.7938 559.405 88.3563 Q554.26 94.9188 545.996 94.9188 Q541.013 94.9188 537.408 92.9743 Q533.843 90.9894 531.494 86.9385 L531.494 93.744 L524 93.744 L524 30.7119 L531.494 30.7119 L531.494 55.2604 Z" fill="#000000" fill-rule="nonzero" fill-opacity="1"></path><path clip-path="url(#clip510)" d="M576.945 48.3739 L584.399 48.3739 L584.399 94.5542 Q584.399 103.223 581.077 107.112 Q577.796 111.001 570.464 111.001 L567.628 111.001 L567.628 104.681 L569.613 104.681 Q573.866 104.681 575.406 102.696 Q576.945 100.752 576.945 94.5542 L576.945 48.3739 M576.945 30.7119 L584.399 30.7119 L584.399 40.1505 L576.945 40.1505 L576.945 30.7119 Z" fill="#000000" fill-rule="nonzero" fill-opacity="1"></path><path clip-path="url(#clip510)" d="M638.802 69.1955 L638.802 72.8413 L604.532 72.8413 Q605.018 80.5381 609.15 84.589 Q613.322 88.5994 620.735 88.5994 Q625.029 88.5994 629.04 87.5461 Q633.09 86.4929 637.06 84.3864 L637.06 91.435 Q633.05 93.1364 628.837 94.0276 Q624.624 94.9188 620.29 94.9188 Q609.433 94.9188 603.073 88.5994 Q596.754 82.2799 596.754 71.5045 Q596.754 60.3645 602.749 53.8426 Q608.785 47.2801 618.993 47.2801 Q628.148 47.2801 633.455 53.1944 Q638.802 59.0683 638.802 69.1955 M631.349 67.008 Q631.268 60.8912 627.905 57.2454 Q624.584 53.5995 619.074 53.5995 Q612.836 53.5995 609.069 57.1238 Q605.342 60.6481 604.775 67.0485 L631.349 67.008 Z" fill="#000000" fill-rule="nonzero" fill-opacity="1"></path><path clip-path="url(#clip510)" d="M683.686 50.1158 L683.686 57.0833 Q680.527 55.3414 677.326 54.4907 Q674.167 53.5995 670.926 53.5995 Q663.675 53.5995 659.664 58.2176 Q655.654 62.7951 655.654 71.0994 Q655.654 79.4038 659.664 84.0218 Q663.675 88.5994 670.926 88.5994 Q674.167 88.5994 677.326 87.7487 Q680.527 86.8575 683.686 85.1156 L683.686 92.0021 Q680.567 93.4604 677.205 94.1896 Q673.883 94.9188 670.116 94.9188 Q659.867 94.9188 653.831 88.4778 Q647.795 82.0369 647.795 71.0994 Q647.795 60 653.872 53.64 Q659.988 47.2801 670.602 47.2801 Q674.045 47.2801 677.326 48.0093 Q680.608 48.6979 683.686 50.1158 Z" fill="#000000" fill-rule="nonzero" fill-opacity="1"></path><path clip-path="url(#clip510)" d="M704.022 35.492 L704.022 48.3739 L719.375 48.3739 L719.375 54.1667 L704.022 54.1667 L704.022 78.7962 Q704.022 84.3459 705.521 85.9258 Q707.06 87.5056 711.719 87.5056 L719.375 87.5056 L719.375 93.744 L711.719 93.744 Q703.09 93.744 699.809 90.5438 Q696.528 87.3031 696.528 78.7962 L696.528 54.1667 L691.059 54.1667 L691.059 48.3739 L696.528 48.3739 L696.528 35.492 L704.022 35.492 Z" fill="#000000" fill-rule="nonzero" fill-opacity="1"></path><path clip-path="url(#clip510)" d="M729.178 48.3739 L736.632 48.3739 L736.632 93.744 L729.178 93.744 L729.178 48.3739 M729.178 30.7119 L736.632 30.7119 L736.632 40.1505 L729.178 40.1505 L729.178 30.7119 Z" fill="#000000" fill-rule="nonzero" fill-opacity="1"></path><path clip-path="url(#clip510)" d="M746.88 48.3739 L754.78 48.3739 L768.958 86.4524 L783.136 48.3739 L791.035 48.3739 L774.021 93.744 L763.894 93.744 L746.88 48.3739 Z" fill="#000000" fill-rule="nonzero" fill-opacity="1"></path><path clip-path="url(#clip510)" d="M840.132 69.1955 L840.132 72.8413 L805.862 72.8413 Q806.348 80.5381 810.48 84.589 Q814.652 88.5994 822.065 88.5994 Q826.359 88.5994 830.37 87.5461 Q834.42 86.4929 838.39 84.3864 L838.39 91.435 Q834.38 93.1364 830.167 94.0276 Q825.954 94.9188 821.62 94.9188 Q810.763 94.9188 804.403 88.5994 Q798.084 82.2799 798.084 71.5045 Q798.084 60.3645 804.079 53.8426 Q810.115 47.2801 820.323 47.2801 Q829.478 47.2801 834.785 53.1944 Q840.132 59.0683 840.132 69.1955 M832.679 67.008 Q832.598 60.8912 829.235 57.2454 Q825.914 53.5995 820.404 53.5995 Q814.166 53.5995 810.399 57.1238 Q806.672 60.6481 806.105 67.0485 L832.679 67.008 Z" fill="#000000" fill-rule="nonzero" fill-opacity="1"></path><path clip-path="url(#clip510)" d="M901.706 30.7119 L901.706 36.9098 L894.576 36.9098 Q890.566 36.9098 888.986 38.5302 Q887.447 40.1505 887.447 44.3635 L887.447 48.3739 L899.721 48.3739 L899.721 54.1667 L887.447 54.1667 L887.447 93.744 L879.953 93.744 L879.953 54.1667 L872.823 54.1667 L872.823 48.3739 L879.953 48.3739 L879.953 45.2142 Q879.953 37.639 883.477 34.1957 Q887.001 30.7119 894.657 30.7119 L901.706 30.7119 Z" fill="#000000" fill-rule="nonzero" fill-opacity="1"></path><path clip-path="url(#clip510)" d="M907.175 75.839 L907.175 48.3739 L914.628 48.3739 L914.628 75.5554 Q914.628 81.9964 917.14 85.2371 Q919.651 88.4373 924.675 88.4373 Q930.71 88.4373 934.194 84.589 Q937.718 80.7406 937.718 74.0971 L937.718 48.3739 L945.172 48.3739 L945.172 93.744 L937.718 93.744 L937.718 86.7764 Q935.004 90.9084 931.399 92.9338 Q927.834 94.9188 923.095 94.9188 Q915.276 94.9188 911.226 90.0577 Q907.175 85.1966 907.175 75.839 M925.93 47.2801 L925.93 47.2801 Z" fill="#000000" fill-rule="nonzero" fill-opacity="1"></path><path clip-path="url(#clip510)" d="M998.239 66.3599 L998.239 93.744 L990.785 93.744 L990.785 66.6029 Q990.785 60.162 988.274 56.9618 Q985.762 53.7616 980.739 53.7616 Q974.703 53.7616 971.219 57.6099 Q967.736 61.4583 967.736 68.1018 L967.736 93.744 L960.242 93.744 L960.242 48.3739 L967.736 48.3739 L967.736 55.4224 Q970.409 51.331 974.015 49.3056 Q977.66 47.2801 982.4 47.2801 Q990.218 47.2801 994.229 52.1412 Q998.239 56.9618 998.239 66.3599 Z" fill="#000000" fill-rule="nonzero" fill-opacity="1"></path><path clip-path="url(#clip510)" d="M1045.76 50.1158 L1045.76 57.0833 Q1042.6 55.3414 1039.4 54.4907 Q1036.24 53.5995 1033 53.5995 Q1025.74 53.5995 1021.73 58.2176 Q1017.72 62.7951 1017.72 71.0994 Q1017.72 79.4038 1021.73 84.0218 Q1025.74 88.5994 1033 88.5994 Q1036.24 88.5994 1039.4 87.7487 Q1042.6 86.8575 1045.76 85.1156 L1045.76 92.0021 Q1042.64 93.4604 1039.27 94.1896 Q1035.95 94.9188 1032.19 94.9188 Q1021.94 94.9188 1015.9 88.4778 Q1009.87 82.0369 1009.87 71.0994 Q1009.87 60 1015.94 53.64 Q1022.06 47.2801 1032.67 47.2801 Q1036.11 47.2801 1039.4 48.0093 Q1042.68 48.6979 1045.76 50.1158 Z" fill="#000000" fill-rule="nonzero" fill-opacity="1"></path><path clip-path="url(#clip510)" d="M1066.09 35.492 L1066.09 48.3739 L1081.44 48.3739 L1081.44 54.1667 L1066.09 54.1667 L1066.09 78.7962 Q1066.09 84.3459 1067.59 85.9258 Q1069.13 87.5056 1073.79 87.5056 L1081.44 87.5056 L1081.44 93.744 L1073.79 93.744 Q1065.16 93.744 1061.88 90.5438 Q1058.6 87.3031 1058.6 78.7962 L1058.6 54.1667 L1053.13 54.1667 L1053.13 48.3739 L1058.6 48.3739 L1058.6 35.492 L1066.09 35.492 Z" fill="#000000" fill-rule="nonzero" fill-opacity="1"></path><path clip-path="url(#clip510)" d="M1091.25 48.3739 L1098.7 48.3739 L1098.7 93.744 L1091.25 93.744 L1091.25 48.3739 M1091.25 30.7119 L1098.7 30.7119 L1098.7 40.1505 L1091.25 40.1505 L1091.25 30.7119 Z" fill="#000000" fill-rule="nonzero" fill-opacity="1"></path><path clip-path="url(#clip510)" d="M1131.88 53.5995 Q1125.88 53.5995 1122.4 58.2986 Q1118.92 62.9571 1118.92 71.0994 Q1118.92 79.2418 1122.36 83.9408 Q1125.84 88.5994 1131.88 88.5994 Q1137.83 88.5994 1141.32 83.9003 Q1144.8 79.2013 1144.8 71.0994 Q1144.8 63.0381 1141.32 58.3391 Q1137.83 53.5995 1131.88 53.5995 M1131.88 47.2801 Q1141.6 47.2801 1147.15 53.5995 Q1152.7 59.9189 1152.7 71.0994 Q1152.7 82.2394 1147.15 88.5994 Q1141.6 94.9188 1131.88 94.9188 Q1122.12 94.9188 1116.57 88.5994 Q1111.06 82.2394 1111.06 71.0994 Q1111.06 59.9189 1116.57 53.5995 Q1122.12 47.2801 1131.88 47.2801 Z" fill="#000000" fill-rule="nonzero" fill-opacity="1"></path><path clip-path="url(#clip510)" d="M1202.77 66.3599 L1202.77 93.744 L1195.32 93.744 L1195.32 66.6029 Q1195.32 60.162 1192.8 56.9618 Q1190.29 53.7616 1185.27 53.7616 Q1179.23 53.7616 1175.75 57.6099 Q1172.27 61.4583 1172.27 68.1018 L1172.27 93.744 L1164.77 93.744 L1164.77 48.3739 L1172.27 48.3739 L1172.27 55.4224 Q1174.94 51.331 1178.54 49.3056 Q1182.19 47.2801 1186.93 47.2801 Q1194.75 47.2801 1198.76 52.1412 Q1202.77 56.9618 1202.77 66.3599 Z" fill="#000000" fill-rule="nonzero" fill-opacity="1"></path><path clip-path="url(#clip510)" d="M1266.98 30.7119 L1266.98 36.9098 L1259.85 36.9098 Q1255.84 36.9098 1254.26 38.5302 Q1252.72 40.1505 1252.72 44.3635 L1252.72 48.3739 L1264.99 48.3739 L1264.99 54.1667 L1252.72 54.1667 L1252.72 93.744 L1245.22 93.744 L1245.22 54.1667 L1238.09 54.1667 L1238.09 48.3739 L1245.22 48.3739 L1245.22 45.2142 Q1245.22 37.639 1248.75 34.1957 Q1252.27 30.7119 1259.93 30.7119 L1266.98 30.7119 Z" fill="#000000" fill-rule="nonzero" fill-opacity="1"></path><path clip-path="url(#clip510)" d="M1290.8 53.5995 Q1284.8 53.5995 1281.32 58.2986 Q1277.83 62.9571 1277.83 71.0994 Q1277.83 79.2418 1281.28 83.9408 Q1284.76 88.5994 1290.8 88.5994 Q1296.75 88.5994 1300.23 83.9003 Q1303.72 79.2013 1303.72 71.0994 Q1303.72 63.0381 1300.23 58.3391 Q1296.75 53.5995 1290.8 53.5995 M1290.8 47.2801 Q1300.52 47.2801 1306.07 53.5995 Q1311.62 59.9189 1311.62 71.0994 Q1311.62 82.2394 1306.07 88.5994 Q1300.52 94.9188 1290.8 94.9188 Q1281.03 94.9188 1275.48 88.5994 Q1269.97 82.2394 1269.97 71.0994 Q1269.97 59.9189 1275.48 53.5995 Q1281.03 47.2801 1290.8 47.2801 Z" fill="#000000" fill-rule="nonzero" fill-opacity="1"></path><path clip-path="url(#clip510)" d="M1350.26 55.3414 Q1349.01 54.6123 1347.51 54.2882 Q1346.05 53.9236 1344.27 53.9236 Q1337.95 53.9236 1334.55 58.0555 Q1331.18 62.1469 1331.18 69.8437 L1331.18 93.744 L1323.69 93.744 L1323.69 48.3739 L1331.18 48.3739 L1331.18 55.4224 Q1333.53 51.2905 1337.3 49.3056 Q1341.07 47.2801 1346.45 47.2801 Q1347.22 47.2801 1348.16 47.4017 Q1349.09 47.4827 1350.22 47.6852 L1350.26 55.3414 Z" fill="#000000" fill-rule="nonzero" fill-opacity="1"></path><path clip-path="url(#clip510)" d="M1414.31 55.2604 L1414.31 30.7119 L1421.76 30.7119 L1421.76 93.744 L1414.31 93.744 L1414.31 86.9385 Q1411.96 90.9894 1408.35 92.9743 Q1404.79 94.9188 1399.76 94.9188 Q1391.54 94.9188 1386.36 88.3563 Q1381.21 81.7938 1381.21 71.0994 Q1381.21 60.4051 1386.36 53.8426 Q1391.54 47.2801 1399.76 47.2801 Q1404.79 47.2801 1408.35 49.2651 Q1411.96 51.2095 1414.31 55.2604 M1388.91 71.0994 Q1388.91 79.3228 1392.27 84.0218 Q1395.67 88.6804 1401.59 88.6804 Q1407.5 88.6804 1410.9 84.0218 Q1414.31 79.3228 1414.31 71.0994 Q1414.31 62.8761 1410.9 58.2176 Q1407.5 53.5185 1401.59 53.5185 Q1395.67 53.5185 1392.27 58.2176 Q1388.91 62.8761 1388.91 71.0994 Z" fill="#000000" fill-rule="nonzero" fill-opacity="1"></path><path clip-path="url(#clip510)" d="M1437.11 48.3739 L1444.57 48.3739 L1444.57 93.744 L1437.11 93.744 L1437.11 48.3739 M1437.11 30.7119 L1444.57 30.7119 L1444.57 40.1505 L1437.11 40.1505 L1437.11 30.7119 Z" fill="#000000" fill-rule="nonzero" fill-opacity="1"></path><path clip-path="url(#clip510)" d="M1483.13 30.7119 L1483.13 36.9098 L1476 36.9098 Q1471.99 36.9098 1470.41 38.5302 Q1468.87 40.1505 1468.87 44.3635 L1468.87 48.3739 L1481.15 48.3739 L1481.15 54.1667 L1468.87 54.1667 L1468.87 93.744 L1461.38 93.744 L1461.38 54.1667 L1454.25 54.1667 L1454.25 48.3739 L1461.38 48.3739 L1461.38 45.2142 Q1461.38 37.639 1464.9 34.1957 Q1468.43 30.7119 1476.08 30.7119 L1483.13 30.7119 Z" fill="#000000" fill-rule="nonzero" fill-opacity="1"></path><path clip-path="url(#clip510)" d="M1512.34 30.7119 L1512.34 36.9098 L1505.21 36.9098 Q1501.2 36.9098 1499.62 38.5302 Q1498.08 40.1505 1498.08 44.3635 L1498.08 48.3739 L1510.35 48.3739 L1510.35 54.1667 L1498.08 54.1667 L1498.08 93.744 L1490.59 93.744 L1490.59 54.1667 L1483.46 54.1667 L1483.46 48.3739 L1490.59 48.3739 L1490.59 45.2142 Q1490.59 37.639 1494.11 34.1957 Q1497.63 30.7119 1505.29 30.7119 L1512.34 30.7119 Z" fill="#000000" fill-rule="nonzero" fill-opacity="1"></path><path clip-path="url(#clip510)" d="M1557.39 69.1955 L1557.39 72.8413 L1523.11 72.8413 Q1523.6 80.5381 1527.73 84.589 Q1531.91 88.5994 1539.32 88.5994 Q1543.61 88.5994 1547.62 87.5461 Q1551.67 86.4929 1555.64 84.3864 L1555.64 91.435 Q1551.63 93.1364 1547.42 94.0276 Q1543.21 94.9188 1538.87 94.9188 Q1528.02 94.9188 1521.66 88.5994 Q1515.34 82.2799 1515.34 71.5045 Q1515.34 60.3645 1521.33 53.8426 Q1527.37 47.2801 1537.58 47.2801 Q1546.73 47.2801 1552.04 53.1944 Q1557.39 59.0683 1557.39 69.1955 M1549.93 67.008 Q1549.85 60.8912 1546.49 57.2454 Q1543.17 53.5995 1537.66 53.5995 Q1531.42 53.5995 1527.65 57.1238 Q1523.92 60.6481 1523.36 67.0485 L1549.93 67.008 Z" fill="#000000" fill-rule="nonzero" fill-opacity="1"></path><path clip-path="url(#clip510)" d="M1595.91 55.3414 Q1594.65 54.6123 1593.15 54.2882 Q1591.7 53.9236 1589.91 53.9236 Q1583.59 53.9236 1580.19 58.0555 Q1576.83 62.1469 1576.83 69.8437 L1576.83 93.744 L1569.34 93.744 L1569.34 48.3739 L1576.83 48.3739 L1576.83 55.4224 Q1579.18 51.2905 1582.95 49.3056 Q1586.71 47.2801 1592.1 47.2801 Q1592.87 47.2801 1593.8 47.4017 Q1594.73 47.4827 1595.87 47.6852 L1595.91 55.3414 Z" fill="#000000" fill-rule="nonzero" fill-opacity="1"></path><path clip-path="url(#clip510)" d="M1640.71 69.1955 L1640.71 72.8413 L1606.44 72.8413 Q1606.93 80.5381 1611.06 84.589 Q1615.23 88.5994 1622.65 88.5994 Q1626.94 88.5994 1630.95 87.5461 Q1635 86.4929 1638.97 84.3864 L1638.97 91.435 Q1634.96 93.1364 1630.75 94.0276 Q1626.53 94.9188 1622.2 94.9188 Q1611.34 94.9188 1604.98 88.5994 Q1598.66 82.2799 1598.66 71.5045 Q1598.66 60.3645 1604.66 53.8426 Q1610.7 47.2801 1620.9 47.2801 Q1630.06 47.2801 1635.37 53.1944 Q1640.71 59.0683 1640.71 69.1955 M1633.26 67.008 Q1633.18 60.8912 1629.82 57.2454 Q1626.49 53.5995 1620.98 53.5995 Q1614.75 53.5995 1610.98 57.1238 Q1607.25 60.6481 1606.68 67.0485 L1633.26 67.008 Z" fill="#000000" fill-rule="nonzero" fill-opacity="1"></path><path clip-path="url(#clip510)" d="M1690.66 66.3599 L1690.66 93.744 L1683.21 93.744 L1683.21 66.6029 Q1683.21 60.162 1680.69 56.9618 Q1678.18 53.7616 1673.16 53.7616 Q1667.12 53.7616 1663.64 57.6099 Q1660.16 61.4583 1660.16 68.1018 L1660.16 93.744 L1652.66 93.744 L1652.66 48.3739 L1660.16 48.3739 L1660.16 55.4224 Q1662.83 51.331 1666.44 49.3056 Q1670.08 47.2801 1674.82 47.2801 Q1682.64 47.2801 1686.65 52.1412 Q1690.66 56.9618 1690.66 66.3599 Z" fill="#000000" fill-rule="nonzero" fill-opacity="1"></path><path clip-path="url(#clip510)" d="M1712.9 35.492 L1712.9 48.3739 L1728.25 48.3739 L1728.25 54.1667 L1712.9 54.1667 L1712.9 78.7962 Q1712.9 84.3459 1714.4 85.9258 Q1715.94 87.5056 1720.6 87.5056 L1728.25 87.5056 L1728.25 93.744 L1720.6 93.744 Q1711.97 93.744 1708.69 90.5438 Q1705.41 87.3031 1705.41 78.7962 L1705.41 54.1667 L1699.94 54.1667 L1699.94 48.3739 L1705.41 48.3739 L1705.41 35.492 L1712.9 35.492 Z" fill="#000000" fill-rule="nonzero" fill-opacity="1"></path><path clip-path="url(#clip510)" d="M1803.23 69.1955 L1803.23 72.8413 L1768.96 72.8413 Q1769.45 80.5381 1773.58 84.589 Q1777.75 88.5994 1785.17 88.5994 Q1789.46 88.5994 1793.47 87.5461 Q1797.52 86.4929 1801.49 84.3864 L1801.49 91.435 Q1797.48 93.1364 1793.27 94.0276 Q1789.06 94.9188 1784.72 94.9188 Q1773.87 94.9188 1767.51 88.5994 Q1761.19 82.2799 1761.19 71.5045 Q1761.19 60.3645 1767.18 53.8426 Q1773.22 47.2801 1783.43 47.2801 Q1792.58 47.2801 1797.89 53.1944 Q1803.23 59.0683 1803.23 69.1955 M1795.78 67.008 Q1795.7 60.8912 1792.34 57.2454 Q1789.02 53.5995 1783.51 53.5995 Q1777.27 53.5995 1773.5 57.1238 Q1769.77 60.6481 1769.21 67.0485 L1795.78 67.008 Z" fill="#000000" fill-rule="nonzero" fill-opacity="1"></path><path clip-path="url(#clip510)" d="M1815.47 30.7119 L1822.92 30.7119 L1822.92 93.744 L1815.47 93.744 L1815.47 30.7119 Z" fill="#000000" fill-rule="nonzero" fill-opacity="1"></path><path clip-path="url(#clip510)" d="M1877.33 69.1955 L1877.33 72.8413 L1843.06 72.8413 Q1843.54 80.5381 1847.67 84.589 Q1851.85 88.5994 1859.26 88.5994 Q1863.55 88.5994 1867.56 87.5461 Q1871.61 86.4929 1875.58 84.3864 L1875.58 91.435 Q1871.57 93.1364 1867.36 94.0276 Q1863.15 94.9188 1858.81 94.9188 Q1847.96 94.9188 1841.6 88.5994 Q1835.28 82.2799 1835.28 71.5045 Q1835.28 60.3645 1841.27 53.8426 Q1847.31 47.2801 1857.52 47.2801 Q1866.67 47.2801 1871.98 53.1944 Q1877.33 59.0683 1877.33 69.1955 M1869.87 67.008 Q1869.79 60.8912 1866.43 57.2454 Q1863.11 53.5995 1857.6 53.5995 Q1851.36 53.5995 1847.59 57.1238 Q1843.87 60.6481 1843.3 67.0485 L1869.87 67.008 Z" fill="#000000" fill-rule="nonzero" fill-opacity="1"></path><path clip-path="url(#clip510)" d="M1884.21 48.3739 L1892.11 48.3739 L1906.29 86.4524 L1920.47 48.3739 L1928.37 48.3739 L1911.35 93.744 L1901.23 93.744 L1884.21 48.3739 Z" fill="#000000" fill-rule="nonzero" fill-opacity="1"></path><path clip-path="url(#clip510)" d="M1959.28 70.9374 Q1950.24 70.9374 1946.76 73.0034 Q1943.27 75.0693 1943.27 80.0519 Q1943.27 84.0218 1945.87 86.3714 Q1948.5 88.6804 1953 88.6804 Q1959.19 88.6804 1962.92 84.3054 Q1966.69 79.8899 1966.69 72.5983 L1966.69 70.9374 L1959.28 70.9374 M1974.14 67.8587 L1974.14 93.744 L1966.69 93.744 L1966.69 86.8575 Q1964.14 90.9894 1960.33 92.9743 Q1956.52 94.9188 1951.01 94.9188 Q1944.04 94.9188 1939.91 91.0299 Q1935.82 87.1005 1935.82 80.5381 Q1935.82 72.8818 1940.92 68.993 Q1946.07 65.1041 1956.24 65.1041 L1966.69 65.1041 L1966.69 64.3749 Q1966.69 59.2303 1963.29 56.4352 Q1959.92 53.5995 1953.81 53.5995 Q1949.92 53.5995 1946.23 54.5312 Q1942.55 55.463 1939.14 57.3264 L1939.14 50.4398 Q1943.23 48.86 1947.08 48.0903 Q1950.93 47.2801 1954.58 47.2801 Q1964.42 47.2801 1969.28 52.3843 Q1974.14 57.4884 1974.14 67.8587 Z" fill="#000000" fill-rule="nonzero" fill-opacity="1"></path><path clip-path="url(#clip510)" d="M1996.87 35.492 L1996.87 48.3739 L2012.22 48.3739 L2012.22 54.1667 L1996.87 54.1667 L1996.87 78.7962 Q1996.87 84.3459 1998.37 85.9258 Q1999.91 87.5056 2004.56 87.5056 L2012.22 87.5056 L2012.22 93.744 L2004.56 93.744 Q1995.94 93.744 1992.65 90.5438 Q1989.37 87.3031 1989.37 78.7962 L1989.37 54.1667 L1983.91 54.1667 L1983.91 48.3739 L1989.37 48.3739 L1989.37 35.492 L1996.87 35.492 Z" fill="#000000" fill-rule="nonzero" fill-opacity="1"></path><path clip-path="url(#clip510)" d="M2022.02 48.3739 L2029.48 48.3739 L2029.48 93.744 L2022.02 93.744 L2022.02 48.3739 M2022.02 30.7119 L2029.48 30.7119 L2029.48 40.1505 L2022.02 40.1505 L2022.02 30.7119 Z" fill="#000000" fill-rule="nonzero" fill-opacity="1"></path><path clip-path="url(#clip510)" d="M2062.65 53.5995 Q2056.66 53.5995 2053.18 58.2986 Q2049.69 62.9571 2049.69 71.0994 Q2049.69 79.2418 2053.13 83.9408 Q2056.62 88.5994 2062.65 88.5994 Q2068.61 88.5994 2072.09 83.9003 Q2075.58 79.2013 2075.58 71.0994 Q2075.58 63.0381 2072.09 58.3391 Q2068.61 53.5995 2062.65 53.5995 M2062.65 47.2801 Q2072.38 47.2801 2077.93 53.5995 Q2083.48 59.9189 2083.48 71.0994 Q2083.48 82.2394 2077.93 88.5994 Q2072.38 94.9188 2062.65 94.9188 Q2052.89 94.9188 2047.34 88.5994 Q2041.83 82.2394 2041.83 71.0994 Q2041.83 59.9189 2047.34 53.5995 Q2052.89 47.2801 2062.65 47.2801 Z" fill="#000000" fill-rule="nonzero" fill-opacity="1"></path><path clip-path="url(#clip510)" d="M2133.55 66.3599 L2133.55 93.744 L2126.09 93.744 L2126.09 66.6029 Q2126.09 60.162 2123.58 56.9618 Q2121.07 53.7616 2116.05 53.7616 Q2110.01 53.7616 2106.53 57.6099 Q2103.04 61.4583 2103.04 68.1018 L2103.04 93.744 L2095.55 93.744 L2095.55 48.3739 L2103.04 48.3739 L2103.04 55.4224 Q2105.72 51.331 2109.32 49.3056 Q2112.97 47.2801 2117.71 47.2801 Q2125.52 47.2801 2129.54 52.1412 Q2133.55 56.9618 2133.55 66.3599 Z" fill="#000000" fill-rule="nonzero" fill-opacity="1"></path><path clip-path="url(#clip510)" d="M2177.34 49.7107 L2177.34 56.7592 Q2174.18 55.1389 2170.77 54.3287 Q2167.37 53.5185 2163.72 53.5185 Q2158.17 53.5185 2155.38 55.2199 Q2152.63 56.9213 2152.63 60.324 Q2152.63 62.9166 2154.61 64.4155 Q2156.6 65.8738 2162.59 67.2106 L2165.14 67.7777 Q2173.08 69.4791 2176.4 72.5983 Q2179.77 75.677 2179.77 81.2267 Q2179.77 87.5461 2174.74 91.2324 Q2169.76 94.9188 2161.01 94.9188 Q2157.36 94.9188 2153.39 94.1896 Q2149.47 93.5009 2145.09 92.0831 L2145.09 84.3864 Q2149.22 86.5334 2153.23 87.6271 Q2157.24 88.6804 2161.17 88.6804 Q2166.44 88.6804 2169.27 86.898 Q2172.11 85.0751 2172.11 81.7938 Q2172.11 78.7557 2170.04 77.1353 Q2168.02 75.5149 2161.09 74.0161 L2158.5 73.4085 Q2151.57 71.9501 2148.49 68.9525 Q2145.41 65.9143 2145.41 60.6481 Q2145.41 54.2477 2149.95 50.7639 Q2154.49 47.2801 2162.83 47.2801 Q2166.97 47.2801 2170.61 47.8878 Q2174.26 48.4954 2177.34 49.7107 Z" fill="#000000" fill-rule="nonzero" fill-opacity="1"></path><path clip-path="url(#clip510)" d="M2193.54 83.4547 L2202.09 83.4547 L2202.09 90.4223 L2195.44 103.385 L2190.22 103.385 L2193.54 90.4223 L2193.54 83.4547 Z" fill="#000000" fill-rule="nonzero" fill-opacity="1"></path><path clip-path="url(#clip510)" d="M884.51 123.984 L895.528 123.984 L922.345 174.58 L922.345 123.984 L930.285 123.984 L930.285 184.464 L919.267 184.464 L892.45 133.868 L892.45 184.464 L884.51 184.464 L884.51 123.984 Z" fill="#000000" fill-rule="nonzero" fill-opacity="1"></path><path clip-path="url(#clip510)" d="M945.476 166.559 L945.476 139.094 L952.93 139.094 L952.93 166.275 Q952.93 172.716 955.441 175.957 Q957.953 179.157 962.976 179.157 Q969.012 179.157 972.495 175.309 Q976.02 171.461 976.02 164.817 L976.02 139.094 L983.473 139.094 L983.473 184.464 L976.02 184.464 L976.02 177.496 Q973.306 181.628 969.7 183.654 Q966.136 185.639 961.396 185.639 Q953.578 185.639 949.527 180.778 Q945.476 175.917 945.476 166.559 M964.232 138 L964.232 138 Z" fill="#000000" fill-rule="nonzero" fill-opacity="1"></path><path clip-path="url(#clip510)" d="M1034.15 147.803 Q1036.95 142.78 1040.83 140.39 Q1044.72 138 1049.99 138 Q1057.08 138 1060.93 142.983 Q1064.78 147.925 1064.78 157.08 L1064.78 184.464 L1057.28 184.464 L1057.28 157.323 Q1057.28 150.801 1054.97 147.641 Q1052.66 144.482 1047.92 144.482 Q1042.13 144.482 1038.77 148.33 Q1035.41 152.178 1035.41 158.822 L1035.41 184.464 L1027.91 184.464 L1027.91 157.323 Q1027.91 150.76 1025.6 147.641 Q1023.29 144.482 1018.47 144.482 Q1012.76 144.482 1009.4 148.37 Q1006.04 152.219 1006.04 158.822 L1006.04 184.464 L998.543 184.464 L998.543 139.094 L1006.04 139.094 L1006.04 146.142 Q1008.59 141.97 1012.15 139.985 Q1015.72 138 1020.62 138 Q1025.56 138 1029.01 140.512 Q1032.49 143.023 1034.15 147.803 Z" fill="#000000" fill-rule="nonzero" fill-opacity="1"></path><path clip-path="url(#clip510)" d="M1112.21 161.819 Q1112.21 153.596 1108.81 148.938 Q1105.45 144.239 1099.53 144.239 Q1093.62 144.239 1090.21 148.938 Q1086.85 153.596 1086.85 161.819 Q1086.85 170.043 1090.21 174.742 Q1093.62 179.4 1099.53 179.4 Q1105.45 179.4 1108.81 174.742 Q1112.21 170.043 1112.21 161.819 M1086.85 145.98 Q1089.2 141.93 1092.77 139.985 Q1096.37 138 1101.35 138 Q1109.62 138 1114.76 144.563 Q1119.95 151.125 1119.95 161.819 Q1119.95 172.514 1114.76 179.076 Q1109.62 185.639 1101.35 185.639 Q1096.37 185.639 1092.77 183.694 Q1089.2 181.709 1086.85 177.658 L1086.85 184.464 L1079.36 184.464 L1079.36 121.432 L1086.85 121.432 L1086.85 145.98 Z" fill="#000000" fill-rule="nonzero" fill-opacity="1"></path><path clip-path="url(#clip510)" d="M1171.11 159.916 L1171.11 163.561 L1136.84 163.561 Q1137.33 171.258 1141.46 175.309 Q1145.63 179.319 1153.04 179.319 Q1157.34 179.319 1161.35 178.266 Q1165.4 177.213 1169.37 175.106 L1169.37 182.155 Q1165.36 183.856 1161.15 184.748 Q1156.93 185.639 1152.6 185.639 Q1141.74 185.639 1135.38 179.319 Q1129.06 173 1129.06 162.225 Q1129.06 151.085 1135.06 144.563 Q1141.09 138 1151.3 138 Q1160.46 138 1165.76 143.914 Q1171.11 149.788 1171.11 159.916 M1163.66 157.728 Q1163.58 151.611 1160.21 147.965 Q1156.89 144.32 1151.38 144.32 Q1145.15 144.32 1141.38 147.844 Q1137.65 151.368 1137.08 157.769 L1163.66 157.728 Z" fill="#000000" fill-rule="nonzero" fill-opacity="1"></path><path clip-path="url(#clip510)" d="M1209.64 146.061 Q1208.38 145.332 1206.88 145.008 Q1205.42 144.644 1203.64 144.644 Q1197.32 144.644 1193.92 148.776 Q1190.56 152.867 1190.56 160.564 L1190.56 184.464 L1183.06 184.464 L1183.06 139.094 L1190.56 139.094 L1190.56 146.142 Q1192.91 142.011 1196.67 140.026 Q1200.44 138 1205.83 138 Q1206.6 138 1207.53 138.122 Q1208.46 138.203 1209.59 138.405 L1209.64 146.061 Z" fill="#000000" fill-rule="nonzero" fill-opacity="1"></path><path clip-path="url(#clip510)" d="M1261.41 144.32 Q1255.41 144.32 1251.93 149.019 Q1248.44 153.677 1248.44 161.819 Q1248.44 169.962 1251.89 174.661 Q1255.37 179.319 1261.41 179.319 Q1267.36 179.319 1270.84 174.62 Q1274.33 169.921 1274.33 161.819 Q1274.33 153.758 1270.84 149.059 Q1267.36 144.32 1261.41 144.32 M1261.41 138 Q1271.13 138 1276.68 144.32 Q1282.23 150.639 1282.23 161.819 Q1282.23 172.959 1276.68 179.319 Q1271.13 185.639 1261.41 185.639 Q1251.64 185.639 1246.09 179.319 Q1240.58 172.959 1240.58 161.819 Q1240.58 150.639 1246.09 144.32 Q1251.64 138 1261.41 138 Z" fill="#000000" fill-rule="nonzero" fill-opacity="1"></path><path clip-path="url(#clip510)" d="M1317.55 121.432 L1317.55 127.63 L1310.42 127.63 Q1306.41 127.63 1304.83 129.25 Q1303.29 130.871 1303.29 135.083 L1303.29 139.094 L1315.57 139.094 L1315.57 144.887 L1303.29 144.887 L1303.29 184.464 L1295.8 184.464 L1295.8 144.887 L1288.67 144.887 L1288.67 139.094 L1295.8 139.094 L1295.8 135.934 Q1295.8 128.359 1299.32 124.916 Q1302.85 121.432 1310.5 121.432 L1317.55 121.432 Z" fill="#000000" fill-rule="nonzero" fill-opacity="1"></path><path clip-path="url(#clip510)" d="M1386.74 125.969 L1386.74 133.949 Q1382.08 131.721 1377.95 130.627 Q1373.82 129.534 1369.97 129.534 Q1363.29 129.534 1359.64 132.126 Q1356.04 134.719 1356.04 139.499 Q1356.04 143.509 1358.43 145.575 Q1360.86 147.601 1367.58 148.857 L1372.52 149.869 Q1381.68 151.611 1386.01 156.027 Q1390.39 160.402 1390.39 167.774 Q1390.39 176.565 1384.47 181.102 Q1378.6 185.639 1367.22 185.639 Q1362.92 185.639 1358.06 184.667 Q1353.24 183.694 1348.05 181.79 L1348.05 173.365 Q1353.04 176.16 1357.82 177.577 Q1362.6 178.995 1367.22 178.995 Q1374.22 178.995 1378.03 176.241 Q1381.84 173.486 1381.84 168.382 Q1381.84 163.926 1379.08 161.414 Q1376.37 158.903 1370.13 157.647 L1365.15 156.675 Q1355.99 154.852 1351.9 150.963 Q1347.81 147.074 1347.81 140.147 Q1347.81 132.126 1353.44 127.508 Q1359.11 122.89 1369.04 122.89 Q1373.29 122.89 1377.71 123.66 Q1382.12 124.43 1386.74 125.969 Z" fill="#000000" fill-rule="nonzero" fill-opacity="1"></path><path clip-path="url(#clip510)" d="M1427.7 129.534 Q1418.78 129.534 1413.52 136.177 Q1408.29 142.821 1408.29 154.285 Q1408.29 165.708 1413.52 172.352 Q1418.78 178.995 1427.7 178.995 Q1436.61 178.995 1441.79 172.352 Q1447.02 165.708 1447.02 154.285 Q1447.02 142.821 1441.79 136.177 Q1436.61 129.534 1427.7 129.534 M1427.7 122.89 Q1440.42 122.89 1448.03 131.438 Q1455.65 139.945 1455.65 154.285 Q1455.65 168.584 1448.03 177.132 Q1440.42 185.639 1427.7 185.639 Q1414.94 185.639 1407.28 177.132 Q1399.66 168.625 1399.66 154.285 Q1399.66 139.945 1407.28 131.438 Q1414.94 122.89 1427.7 122.89 Z" fill="#000000" fill-rule="nonzero" fill-opacity="1"></path><path clip-path="url(#clip510)" d="M1463.06 123.984 L1471.32 123.984 L1484.04 175.106 L1496.72 123.984 L1505.92 123.984 L1518.64 175.106 L1531.32 123.984 L1539.62 123.984 L1524.43 184.464 L1514.14 184.464 L1501.38 131.964 L1488.5 184.464 L1478.21 184.464 L1463.06 123.984 Z" fill="#000000" fill-rule="nonzero" fill-opacity="1"></path><path clip-path="url(#clip510)" d="M1579.08 140.431 L1579.08 147.479 Q1575.92 145.859 1572.52 145.049 Q1569.11 144.239 1565.47 144.239 Q1559.92 144.239 1557.12 145.94 Q1554.37 147.641 1554.37 151.044 Q1554.37 153.637 1556.35 155.135 Q1558.34 156.594 1564.33 157.931 L1566.88 158.498 Q1574.82 160.199 1578.15 163.318 Q1581.51 166.397 1581.51 171.947 Q1581.51 178.266 1576.49 181.952 Q1571.5 185.639 1562.75 185.639 Q1559.11 185.639 1555.14 184.91 Q1551.21 184.221 1546.83 182.803 L1546.83 175.106 Q1550.96 177.253 1554.98 178.347 Q1558.99 179.4 1562.91 179.4 Q1568.18 179.4 1571.02 177.618 Q1573.85 175.795 1573.85 172.514 Q1573.85 169.476 1571.79 167.855 Q1569.76 166.235 1562.83 164.736 L1560.24 164.128 Q1553.31 162.67 1550.24 159.672 Q1547.16 156.634 1547.16 151.368 Q1547.16 144.968 1551.69 141.484 Q1556.23 138 1564.58 138 Q1568.71 138 1572.35 138.608 Q1576 139.215 1579.08 140.431 Z" fill="#000000" fill-rule="nonzero" fill-opacity="1"></path><path clip-path="url(#clip510)" d="M1620.72 146.791 L1672.65 146.791 L1672.65 153.596 L1620.72 153.596 L1620.72 146.791 M1620.72 163.318 L1672.65 163.318 L1672.65 170.205 L1620.72 170.205 L1620.72 163.318 Z" fill="#000000" fill-rule="nonzero" fill-opacity="1"></path><path clip-path="url(#clip510)" d="M1718.1 177.577 L1731.47 177.577 L1731.47 131.438 L1716.93 134.354 L1716.93 126.901 L1731.39 123.984 L1739.57 123.984 L1739.57 177.577 L1752.94 177.577 L1752.94 184.464 L1718.1 184.464 L1718.1 177.577 Z" fill="#000000" fill-rule="nonzero" fill-opacity="1"></path><path clip-path="url(#clip510)" d="M1786.97 129.372 Q1780.65 129.372 1777.45 135.61 Q1774.29 141.808 1774.29 154.285 Q1774.29 166.721 1777.45 172.959 Q1780.65 179.157 1786.97 179.157 Q1793.33 179.157 1796.49 172.959 Q1799.69 166.721 1799.69 154.285 Q1799.69 141.808 1796.49 135.61 Q1793.33 129.372 1786.97 129.372 M1786.97 122.89 Q1797.14 122.89 1802.49 130.952 Q1807.87 138.972 1807.87 154.285 Q1807.87 169.557 1802.49 177.618 Q1797.14 185.639 1786.97 185.639 Q1776.8 185.639 1771.41 177.618 Q1766.07 169.557 1766.07 154.285 Q1766.07 138.972 1771.41 130.952 Q1776.8 122.89 1786.97 122.89 Z" fill="#000000" fill-rule="nonzero" fill-opacity="1"></path><polyline clip-path="url(#clip512)" style="stroke:#009af9; stroke-linecap:round; stroke-linejoin:round; stroke-width:4; stroke-opacity:1; fill:none" points="456.029,340.732 474.012,278.451 491.995,325.204 509.978,372.875 527.961,421.247 545.944,468.723 563.927,515.374 581.91,561.011 599.893,605.787 617.877,650.057 635.86,693.603 653.843,736.236 671.826,777.551 689.809,816.891 707.792,853.79 725.775,888.271 743.758,920.51 761.741,950.471 779.724,978.303 797.707,1003.98 815.69,1027.34 833.674,1048.56 851.657,1067.85 869.64,1085.29 887.623,1101.09 905.606,1115.53 923.589,1128.68 941.572,1140.63 959.555,1151.62 977.538,1161.7 995.521,1170.95 1013.5,1179.55 1031.49,1187.59 1049.47,1195.06 1067.45,1202.07 1085.44,1208.72 1103.42,1214.9 1121.4,1220.7 1139.39,1226.26 1157.37,1231.5 1175.35,1236.48 1193.34,1241.27 1211.32,1245.83 1229.3,1250.17 1247.28,1254.35 1265.27,1258.37 1283.25,1262.18 1301.23,1265.85 1319.22,1269.41 1337.2,1272.8 1355.18,1276.06 1373.17,1279.23 1391.15,1282.25 1409.13,1285.15 1427.12,1287.98 1445.1,1290.7 1463.08,1293.3 1481.06,1295.83 1499.05,1298.27 1517.03,1300.61 1535.01,1302.87 1553,1304.57 1570.98,1306.1 1588.96,1307.56 1606.95,1308.98 1624.93,1310.3 1642.91,1311.56 1660.9,1312.78 1678.88,1313.93 1696.86,1315.01 1714.84,1316.05 1732.83,1317.04 1750.81,1317.96 1768.79,1318.84 1786.78,1319.68 1804.76,1320.46 1822.74,1321.2 1840.73,1321.91 1858.71,1322.56 1876.69,1323.17 1894.68,1323.75 1912.66,1324.29 1930.64,1324.78 1948.62,1325.26 1966.61,1325.69 1984.59,1326.08 2002.57,1326.45 2020.56,1326.79 2038.54,1327.09 2056.52,1327.36 2074.51,1327.62 2092.49,1327.83 2110.47,1328.02 2128.46,1328.19 2146.44,1328.33 2164.42,1328.44 2182.4,1328.54 2200.39,1328.61 2218.37,1328.65 2236.35,1328.68 "></polyline>
</svg>